<?xml version="1.0" encoding="UTF-8"?>
<svg width="60px" height="66px" viewBox="0 0 60 66" version="1.1" xmlns="http://www.w3.org/2000/svg" xmlns:xlink="http://www.w3.org/1999/xlink">
    <title>bell</title>
    <defs>
        <linearGradient x1="49.9993145%" y1="144.892998%" x2="49.9993145%" y2="4.96875808e-14%" id="linearGradient-1">
            <stop stop-color="#D07854" offset="0%"></stop>
            <stop stop-color="#F4A968" offset="100%"></stop>
        </linearGradient>
        <linearGradient x1="49.9993145%" y1="-3.98595604%" x2="49.9993145%" y2="146.920941%" id="linearGradient-2">
            <stop stop-color="#FFD47C" offset="0%"></stop>
            <stop stop-color="#F9C374" offset="68%"></stop>
            <stop stop-color="#F5B970" offset="100%"></stop>
        </linearGradient>
        <linearGradient x1="50.0012124%" y1="-0.783183252%" x2="50.0012124%" y2="100.05166%" id="linearGradient-3">
            <stop stop-color="#FFD47E" offset="0%"></stop>
            <stop stop-color="#F4A966" offset="68%"></stop>
            <stop stop-color="#EA9358" offset="100%"></stop>
        </linearGradient>
        <linearGradient x1="50.0021431%" y1="-0.772366445%" x2="50.0021431%" y2="100.042909%" id="linearGradient-4">
            <stop stop-color="#FFD47E" offset="0%"></stop>
            <stop stop-color="#F7B673" offset="100%"></stop>
        </linearGradient>
        <linearGradient x1="50.0074052%" y1="-0.902837489%" x2="50.0074052%" y2="100.042992%" id="linearGradient-5">
            <stop stop-color="#FFD47E" offset="0%"></stop>
            <stop stop-color="#FABF76" offset="68%"></stop>
            <stop stop-color="#F7B472" offset="100%"></stop>
        </linearGradient>
        <linearGradient x1="50%" y1="-1.03381434%" x2="50%" y2="100.043076%" id="linearGradient-6">
            <stop stop-color="#FFD47E" offset="0%"></stop>
            <stop stop-color="#F9BE75" offset="68%"></stop>
            <stop stop-color="#F6B370" offset="100%"></stop>
        </linearGradient>
        <linearGradient x1="50.0030499%" y1="-0.773860705%" x2="50.0030499%" y2="100.042992%" id="linearGradient-7">
            <stop stop-color="#FFD47E" offset="0%"></stop>
            <stop stop-color="#F9BC74" offset="68%"></stop>
            <stop stop-color="#F5B16F" offset="100%"></stop>
        </linearGradient>
        <linearGradient x1="50%" y1="-0.774360077%" x2="50%" y2="100.04302%" id="linearGradient-8">
            <stop stop-color="#FFD47E" offset="0%"></stop>
            <stop stop-color="#F9BB73" offset="68%"></stop>
            <stop stop-color="#F4AF6E" offset="100%"></stop>
        </linearGradient>
        <linearGradient x1="49.9946904%" y1="-0.774818402%" x2="49.9946904%" y2="100.037665%" id="linearGradient-9">
            <stop stop-color="#FFD47E" offset="0%"></stop>
            <stop stop-color="#F8BA73" offset="68%"></stop>
            <stop stop-color="#F4AD6D" offset="100%"></stop>
        </linearGradient>
        <linearGradient x1="50.0098216%" y1="-0.775319011%" x2="50.0098216%" y2="100.037689%" id="linearGradient-10">
            <stop stop-color="#FFD47E" offset="0%"></stop>
            <stop stop-color="#F8B972" offset="68%"></stop>
            <stop stop-color="#F3AC6B" offset="100%"></stop>
        </linearGradient>
        <linearGradient x1="50%" y1="-0.884526185%" x2="50%" y2="100.037754%" id="linearGradient-11">
            <stop stop-color="#FFD47E" offset="0%"></stop>
            <stop stop-color="#F8B871" offset="68%"></stop>
            <stop stop-color="#F2AA6A" offset="100%"></stop>
        </linearGradient>
        <linearGradient x1="49.9988542%" y1="-0.819804757%" x2="49.9988542%" y2="100.037754%" id="linearGradient-12">
            <stop stop-color="#FFD47E" offset="0%"></stop>
            <stop stop-color="#F7B770" offset="68%"></stop>
            <stop stop-color="#F2A869" offset="100%"></stop>
        </linearGradient>
        <linearGradient x1="49.9923172%" y1="-0.755103634%" x2="49.9923172%" y2="100.040444%" id="linearGradient-13">
            <stop stop-color="#FFD47E" offset="0%"></stop>
            <stop stop-color="#F7B66F" offset="68%"></stop>
            <stop stop-color="#F1A667" offset="100%"></stop>
        </linearGradient>
        <linearGradient x1="49.9859035%" y1="-0.668788091%" x2="49.9859035%" y2="100.037754%" id="linearGradient-14">
            <stop stop-color="#FFD47E" offset="0%"></stop>
            <stop stop-color="#F7B56F" offset="68%"></stop>
            <stop stop-color="#F0A566" offset="100%"></stop>
        </linearGradient>
        <linearGradient x1="49.9568611%" y1="-0.756225355%" x2="49.9568611%" y2="100.037811%" id="linearGradient-15">
            <stop stop-color="#FFD47E" offset="0%"></stop>
            <stop stop-color="#F7B46E" offset="68%"></stop>
            <stop stop-color="#F0A365" offset="100%"></stop>
        </linearGradient>
        <linearGradient x1="50.0221537%" y1="-0.756715853%" x2="50.0221537%" y2="100.037836%" id="linearGradient-16">
            <stop stop-color="#FFD47E" offset="0%"></stop>
            <stop stop-color="#F6B26D" offset="68%"></stop>
            <stop stop-color="#EFA163" offset="100%"></stop>
        </linearGradient>
        <linearGradient x1="49.9910721%" y1="-0.757206988%" x2="49.9910721%" y2="100.03786%" id="linearGradient-17">
            <stop stop-color="#FFD47E" offset="0%"></stop>
            <stop stop-color="#F6B16C" offset="68%"></stop>
            <stop stop-color="#EFA062" offset="100%"></stop>
        </linearGradient>
        <linearGradient x1="50.0268697%" y1="-0.757698761%" x2="50.0268697%" y2="100.037885%" id="linearGradient-18">
            <stop stop-color="#FFD47E" offset="0%"></stop>
            <stop stop-color="#F6B06B" offset="68%"></stop>
            <stop stop-color="#EE9E61" offset="100%"></stop>
        </linearGradient>
        <linearGradient x1="49.9639722%" y1="-0.758191172%" x2="49.9639722%" y2="100.03791%" id="linearGradient-19">
            <stop stop-color="#FFD47E" offset="0%"></stop>
            <stop stop-color="#F5AF6B" offset="68%"></stop>
            <stop stop-color="#ED9C60" offset="100%"></stop>
        </linearGradient>
        <linearGradient x1="50.0090337%" y1="-0.758684225%" x2="50.0090337%" y2="100.037934%" id="linearGradient-20">
            <stop stop-color="#FFD47E" offset="0%"></stop>
            <stop stop-color="#F5AE6A" offset="68%"></stop>
            <stop stop-color="#ED9B5E" offset="100%"></stop>
        </linearGradient>
        <linearGradient x1="50.0089075%" y1="-0.759073511%" x2="50.0089075%" y2="100.024201%" id="linearGradient-21">
            <stop stop-color="#FFD47E" offset="0%"></stop>
            <stop stop-color="#F5AD69" offset="68%"></stop>
            <stop stop-color="#EC995D" offset="100%"></stop>
        </linearGradient>
        <linearGradient x1="50.0079671%" y1="-0.759609891%" x2="50.0079671%" y2="100.029771%" id="linearGradient-22">
            <stop stop-color="#FFD47E" offset="0%"></stop>
            <stop stop-color="#F5AC68" offset="68%"></stop>
            <stop stop-color="#EC985C" offset="100%"></stop>
        </linearGradient>
        <linearGradient x1="50.0092556%" y1="-0.760125726%" x2="50.0092556%" y2="100.032545%" id="linearGradient-23">
            <stop stop-color="#FFD47E" offset="0%"></stop>
            <stop stop-color="#F4AB67" offset="68%"></stop>
            <stop stop-color="#EB965B" offset="100%"></stop>
        </linearGradient>
        <linearGradient x1="50.0319465%" y1="-0.782651231%" x2="50.0319465%" y2="100.048916%" id="linearGradient-24">
            <stop stop-color="#FFD47E" offset="0%"></stop>
            <stop stop-color="#F4AA67" offset="68%"></stop>
            <stop stop-color="#EB9459" offset="100%"></stop>
        </linearGradient>
        <linearGradient x1="49.995013%" y1="-229.881749%" x2="49.995013%" y2="100.213654%" id="linearGradient-25">
            <stop stop-color="#FFD47E" offset="0%"></stop>
            <stop stop-color="#F4A966" offset="68%"></stop>
            <stop stop-color="#EA9358" offset="100%"></stop>
        </linearGradient>
        <linearGradient x1="50.0158346%" y1="-229.897109%" x2="50.0158346%" y2="100.218378%" id="linearGradient-26">
            <stop stop-color="#FFD37D" offset="0%"></stop>
            <stop stop-color="#F4AA66" offset="68%"></stop>
            <stop stop-color="#EA9559" offset="100%"></stop>
        </linearGradient>
        <linearGradient x1="49.816483%" y1="-229.84591%" x2="49.816483%" y2="100.223271%" id="linearGradient-27">
            <stop stop-color="#FFD27D" offset="0%"></stop>
            <stop stop-color="#F4AB67" offset="68%"></stop>
            <stop stop-color="#EB975A" offset="100%"></stop>
        </linearGradient>
        <linearGradient x1="49.954522%" y1="-229.924583%" x2="49.954522%" y2="100.228532%" id="linearGradient-28">
            <stop stop-color="#FED17C" offset="0%"></stop>
            <stop stop-color="#F4AC67" offset="68%"></stop>
            <stop stop-color="#EC995B" offset="100%"></stop>
        </linearGradient>
        <linearGradient x1="50.0174964%" y1="-230.38927%" x2="50.0174964%" y2="100.234263%" id="linearGradient-29">
            <stop stop-color="#FED07B" offset="0%"></stop>
            <stop stop-color="#F4AD68" offset="68%"></stop>
            <stop stop-color="#EC9B5C" offset="100%"></stop>
        </linearGradient>
        <linearGradient x1="50.008147%" y1="-229.245659%" x2="50.008147%" y2="100.239104%" id="linearGradient-30">
            <stop stop-color="#FDCF7B" offset="0%"></stop>
            <stop stop-color="#F4AE68" offset="68%"></stop>
            <stop stop-color="#ED9D5D" offset="100%"></stop>
        </linearGradient>
        <linearGradient x1="50.0223876%" y1="-229.879353%" x2="50.0223876%" y2="100.245507%" id="linearGradient-31">
            <stop stop-color="#FCCE7A" offset="0%"></stop>
            <stop stop-color="#F4AF68" offset="68%"></stop>
            <stop stop-color="#ED9F5E" offset="100%"></stop>
        </linearGradient>
        <linearGradient x1="50.0695559%" y1="-229.889917%" x2="50.0695559%" y2="100.25176%" id="linearGradient-32">
            <stop stop-color="#FCCD79" offset="0%"></stop>
            <stop stop-color="#F4B069" offset="68%"></stop>
            <stop stop-color="#EEA15F" offset="100%"></stop>
        </linearGradient>
        <linearGradient x1="49.9860669%" y1="-229.874467%" x2="49.9860669%" y2="100.25832%" id="linearGradient-33">
            <stop stop-color="#FBCC78" offset="0%"></stop>
            <stop stop-color="#F5B169" offset="68%"></stop>
            <stop stop-color="#EEA361" offset="100%"></stop>
        </linearGradient>
        <linearGradient x1="50.0173236%" y1="-229.948378%" x2="50.0173236%" y2="100.265303%" id="linearGradient-34">
            <stop stop-color="#FBCB78" offset="0%"></stop>
            <stop stop-color="#F5B26A" offset="68%"></stop>
            <stop stop-color="#EFA562" offset="100%"></stop>
        </linearGradient>
        <linearGradient x1="50.0089334%" y1="-229.360757%" x2="50.0089334%" y2="100.272124%" id="linearGradient-35">
            <stop stop-color="#FACA77" offset="0%"></stop>
            <stop stop-color="#F5B36A" offset="68%"></stop>
            <stop stop-color="#EFA763" offset="100%"></stop>
        </linearGradient>
        <linearGradient x1="50.074418%" y1="-229.878873%" x2="50.074418%" y2="100.280271%" id="linearGradient-36">
            <stop stop-color="#FAC976" offset="0%"></stop>
            <stop stop-color="#F5B46B" offset="68%"></stop>
            <stop stop-color="#F0A964" offset="100%"></stop>
        </linearGradient>
        <linearGradient x1="50.0096337%" y1="-229.791272%" x2="50.0096337%" y2="100.192242%" id="linearGradient-37">
            <stop stop-color="#F9C875" offset="0%"></stop>
            <stop stop-color="#F5B56B" offset="68%"></stop>
            <stop stop-color="#F0AB65" offset="100%"></stop>
        </linearGradient>
        <linearGradient x1="50.0149749%" y1="-230.318048%" x2="50.0149749%" y2="100.19833%" id="linearGradient-38">
            <stop stop-color="#F9C775" offset="0%"></stop>
            <stop stop-color="#F5B66B" offset="68%"></stop>
            <stop stop-color="#F1AD66" offset="100%"></stop>
        </linearGradient>
        <linearGradient x1="50.0413312%" y1="-229.814236%" x2="50.0413312%" y2="100.204156%" id="linearGradient-39">
            <stop stop-color="#F9C674" offset="0%"></stop>
            <stop stop-color="#F5B76C" offset="68%"></stop>
            <stop stop-color="#F2AF67" offset="100%"></stop>
        </linearGradient>
        <linearGradient x1="50.0149343%" y1="-229.74732%" x2="50.0149343%" y2="100.210634%" id="linearGradient-40">
            <stop stop-color="#F8C473" offset="0%"></stop>
            <stop stop-color="#F5B86C" offset="68%"></stop>
            <stop stop-color="#F2B268" offset="100%"></stop>
        </linearGradient>
        <linearGradient x1="50.2080659%" y1="-229.845322%" x2="50.2080659%" y2="100.217648%" id="linearGradient-41">
            <stop stop-color="#F8C373" offset="0%"></stop>
            <stop stop-color="#F5B96D" offset="68%"></stop>
            <stop stop-color="#F3B469" offset="100%"></stop>
        </linearGradient>
        <linearGradient x1="50.0057838%" y1="-230.726152%" x2="50.0057838%" y2="100.225598%" id="linearGradient-42">
            <stop stop-color="#F7C272" offset="0%"></stop>
            <stop stop-color="#F5BA6D" offset="68%"></stop>
            <stop stop-color="#F3B66A" offset="100%"></stop>
        </linearGradient>
        <linearGradient x1="50.0133293%" y1="-230.001975%" x2="50.0133293%" y2="100.233052%" id="linearGradient-43">
            <stop stop-color="#F7C171" offset="0%"></stop>
            <stop stop-color="#F6BB6E" offset="68%"></stop>
            <stop stop-color="#F4B86C" offset="100%"></stop>
        </linearGradient>
        <linearGradient x1="50.0164786%" y1="-230.547055%" x2="50.0164786%" y2="100.241982%" id="linearGradient-44">
            <stop stop-color="#F7C070" offset="0%"></stop>
            <stop stop-color="#F6BC6E" offset="68%"></stop>
            <stop stop-color="#F5BA6D" offset="100%"></stop>
        </linearGradient>
        <linearGradient x1="49.9969594%" y1="-229.413278%" x2="49.9969594%" y2="100.250314%" id="linearGradient-45">
            <stop stop-color="#F6BF70" offset="0%"></stop>
            <stop stop-color="#F6BD6E" offset="68%"></stop>
            <stop stop-color="#F5BC6E" offset="100%"></stop>
        </linearGradient>
        <linearGradient x1="49.8751323%" y1="-3.08656693%" x2="49.8751323%" y2="102.106358%" id="linearGradient-46">
            <stop stop-color="#FFD47E" offset="0%"></stop>
            <stop stop-color="#F4A966" offset="68%"></stop>
            <stop stop-color="#EA9358" offset="100%"></stop>
        </linearGradient>
        <linearGradient x1="49.9629183%" y1="-2.92746878%" x2="49.9629183%" y2="102.007536%" id="linearGradient-47">
            <stop stop-color="#FFD47E" offset="0%"></stop>
            <stop stop-color="#F3A866" offset="68%"></stop>
            <stop stop-color="#EA9358" offset="100%"></stop>
        </linearGradient>
        <linearGradient x1="49.9429229%" y1="-2.79101167%" x2="49.9429229%" y2="101.905963%" id="linearGradient-48">
            <stop stop-color="#FFD47E" offset="0%"></stop>
            <stop stop-color="#F3A765" offset="68%"></stop>
            <stop stop-color="#EA9358" offset="100%"></stop>
        </linearGradient>
        <linearGradient x1="50.0313072%" y1="-2.53853217%" x2="50.0313072%" y2="101.813272%" id="linearGradient-49">
            <stop stop-color="#FFD47E" offset="0%"></stop>
            <stop stop-color="#F2A765" offset="68%"></stop>
            <stop stop-color="#EA9358" offset="100%"></stop>
        </linearGradient>
        <linearGradient x1="49.9657537%" y1="-2.49559867%" x2="49.9657537%" y2="101.706989%" id="linearGradient-50">
            <stop stop-color="#FFD47E" offset="0%"></stop>
            <stop stop-color="#F2A665" offset="68%"></stop>
            <stop stop-color="#EA9358" offset="100%"></stop>
        </linearGradient>
        <linearGradient x1="49.9626803%" y1="-2.35917632%" x2="49.9626803%" y2="101.603372%" id="linearGradient-51">
            <stop stop-color="#FFD47E" offset="0%"></stop>
            <stop stop-color="#F2A664" offset="68%"></stop>
            <stop stop-color="#EA9358" offset="100%"></stop>
        </linearGradient>
        <linearGradient x1="49.9886058%" y1="-2.20013121%" x2="49.9886058%" y2="101.500899%" id="linearGradient-52">
            <stop stop-color="#FFD47E" offset="0%"></stop>
            <stop stop-color="#F1A564" offset="68%"></stop>
            <stop stop-color="#EA9358" offset="100%"></stop>
        </linearGradient>
        <linearGradient x1="49.9884486%" y1="-2.06369623%" x2="49.9884486%" y2="101.415929%" id="linearGradient-53">
            <stop stop-color="#FFD47E" offset="0%"></stop>
            <stop stop-color="#F1A464" offset="68%"></stop>
            <stop stop-color="#EA9358" offset="100%"></stop>
        </linearGradient>
        <linearGradient x1="50.0315665%" y1="-1.90455262%" x2="50.0315665%" y2="101.304061%" id="linearGradient-54">
            <stop stop-color="#FFD47E" offset="0%"></stop>
            <stop stop-color="#F0A463" offset="68%"></stop>
            <stop stop-color="#EA9358" offset="100%"></stop>
        </linearGradient>
        <linearGradient x1="50.0115948%" y1="-1.76810413%" x2="50.0115948%" y2="101.212627%" id="linearGradient-55">
            <stop stop-color="#FFD47E" offset="0%"></stop>
            <stop stop-color="#F0A363" offset="68%"></stop>
            <stop stop-color="#EA9358" offset="100%"></stop>
        </linearGradient>
        <linearGradient x1="49.9623698%" y1="-1.60851835%" x2="49.9623698%" y2="101.110104%" id="linearGradient-56">
            <stop stop-color="#FFD47E" offset="0%"></stop>
            <stop stop-color="#EFA363" offset="68%"></stop>
            <stop stop-color="#EA9358" offset="100%"></stop>
        </linearGradient>
        <linearGradient x1="49.9653735%" y1="-1.47092102%" x2="49.9653735%" y2="101.01833%" id="linearGradient-57">
            <stop stop-color="#FFD47E" offset="0%"></stop>
            <stop stop-color="#EFA263" offset="68%"></stop>
            <stop stop-color="#EA9358" offset="100%"></stop>
        </linearGradient>
        <linearGradient x1="50.1960106%" y1="-1.3342379%" x2="50.1960106%" y2="100.949796%" id="linearGradient-58">
            <stop stop-color="#FFD47E" offset="0%"></stop>
            <stop stop-color="#EFA162" offset="68%"></stop>
            <stop stop-color="#EA9358" offset="100%"></stop>
        </linearGradient>
        <linearGradient x1="50.1244227%" y1="-1.17407993%" x2="50.1244227%" y2="100.790246%" id="linearGradient-59">
            <stop stop-color="#FFD47E" offset="0%"></stop>
            <stop stop-color="#EEA162" offset="68%"></stop>
            <stop stop-color="#EA9358" offset="100%"></stop>
        </linearGradient>
        <linearGradient x1="50.0812974%" y1="-1.03860917%" x2="50.0812974%" y2="100.812825%" id="linearGradient-60">
            <stop stop-color="#FFD47E" offset="0%"></stop>
            <stop stop-color="#EEA062" offset="68%"></stop>
            <stop stop-color="#EA9358" offset="100%"></stop>
        </linearGradient>
        <linearGradient x1="50.0319191%" y1="-0.878774223%" x2="50.0319191%" y2="100.608382%" id="linearGradient-61">
            <stop stop-color="#FFD47E" offset="0%"></stop>
            <stop stop-color="#ED9F61" offset="68%"></stop>
            <stop stop-color="#EA9358" offset="100%"></stop>
        </linearGradient>
        <linearGradient x1="49.9884145%" y1="-0.742741391%" x2="49.9884145%" y2="100.495161%" id="linearGradient-62">
            <stop stop-color="#FFD47E" offset="0%"></stop>
            <stop stop-color="#ED9F61" offset="68%"></stop>
            <stop stop-color="#EA9358" offset="100%"></stop>
        </linearGradient>
        <linearGradient x1="49.9180603%" y1="-0.584400989%" x2="49.9180603%" y2="100.382108%" id="linearGradient-63">
            <stop stop-color="#FFD47E" offset="0%"></stop>
            <stop stop-color="#ED9E61" offset="68%"></stop>
            <stop stop-color="#EA9358" offset="100%"></stop>
        </linearGradient>
        <linearGradient x1="49.9383776%" y1="-0.449236298%" x2="49.9383776%" y2="100.314465%" id="linearGradient-64">
            <stop stop-color="#FFD47E" offset="0%"></stop>
            <stop stop-color="#EC9E61" offset="68%"></stop>
            <stop stop-color="#EA9358" offset="100%"></stop>
        </linearGradient>
        <linearGradient x1="49.9647471%" y1="-0.291676015%" x2="49.9647471%" y2="100.20193%" id="linearGradient-65">
            <stop stop-color="#FFD47E" offset="0%"></stop>
            <stop stop-color="#EC9D60" offset="68%"></stop>
            <stop stop-color="#EA9358" offset="100%"></stop>
        </linearGradient>
        <linearGradient x1="49.9617331%" y1="-0.156739812%" x2="49.9617331%" y2="100%" id="linearGradient-66">
            <stop stop-color="#FFD47E" offset="0%"></stop>
            <stop stop-color="#EB9D60" offset="68%"></stop>
            <stop stop-color="#EA9358" offset="100%"></stop>
        </linearGradient>
        <linearGradient x1="49.9412355%" y1="0%" x2="49.9412355%" y2="100%" id="linearGradient-67">
            <stop stop-color="#FFD47E" offset="0%"></stop>
            <stop stop-color="#EB9C60" offset="68%"></stop>
            <stop stop-color="#EA9358" offset="100%"></stop>
        </linearGradient>
        <linearGradient x1="49.9882834%" y1="1.59064861e-14%" x2="49.9882834%" y2="100%" id="linearGradient-68">
            <stop stop-color="#FFD47E" offset="0%"></stop>
            <stop stop-color="#EA9B5F" offset="68%"></stop>
            <stop stop-color="#EA9358" offset="100%"></stop>
        </linearGradient>
        <linearGradient x1="50.0355091%" y1="1.59064861e-14%" x2="50.0355091%" y2="100%" id="linearGradient-69">
            <stop stop-color="#FFD47E" offset="0%"></stop>
            <stop stop-color="#EA9A5E" offset="68%"></stop>
            <stop stop-color="#EA9358" offset="100%"></stop>
        </linearGradient>
        <linearGradient x1="50.0829137%" y1="-1.59064861e-14%" x2="50.0829137%" y2="100%" id="linearGradient-70">
            <stop stop-color="#FFD47E" offset="0%"></stop>
            <stop stop-color="#E9995E" offset="68%"></stop>
            <stop stop-color="#EA9358" offset="100%"></stop>
        </linearGradient>
        <linearGradient x1="49.9881831%" y1="1.59100478e-14%" x2="49.9881831%" y2="100.022391%" id="linearGradient-71">
            <stop stop-color="#FFD37E" offset="0%"></stop>
            <stop stop-color="#E9985D" offset="68%"></stop>
            <stop stop-color="#EA9358" offset="100%"></stop>
        </linearGradient>
        <linearGradient x1="50.0358479%" y1="1.59064861e-14%" x2="50.0358479%" y2="100%" id="linearGradient-72">
            <stop stop-color="#FFD37E" offset="0%"></stop>
            <stop stop-color="#E8985C" offset="68%"></stop>
            <stop stop-color="#EA9358" offset="100%"></stop>
        </linearGradient>
        <linearGradient x1="49.8414746%" y1="1.59064861e-14%" x2="49.8414746%" y2="100%" id="linearGradient-73">
            <stop stop-color="#FFD37E" offset="0%"></stop>
            <stop stop-color="#E8975C" offset="68%"></stop>
            <stop stop-color="#EA9358" offset="100%"></stop>
        </linearGradient>
        <linearGradient x1="49.9849289%" y1="1.59064861e-14%" x2="49.9849289%" y2="100%" id="linearGradient-74">
            <stop stop-color="#FFD27D" offset="0%"></stop>
            <stop stop-color="#E7965B" offset="68%"></stop>
            <stop stop-color="#EA9358" offset="100%"></stop>
        </linearGradient>
        <linearGradient x1="49.9125963%" y1="1.59064861e-14%" x2="49.9125963%" y2="100%" id="linearGradient-75">
            <stop stop-color="#FFD27D" offset="0%"></stop>
            <stop stop-color="#E7955A" offset="68%"></stop>
            <stop stop-color="#EA9358" offset="100%"></stop>
        </linearGradient>
        <linearGradient x1="50.0571308%" y1="1.59064861e-14%" x2="50.0571308%" y2="100%" id="linearGradient-76">
            <stop stop-color="#FFD27D" offset="0%"></stop>
            <stop stop-color="#E6945A" offset="68%"></stop>
            <stop stop-color="#EA9358" offset="100%"></stop>
        </linearGradient>
        <linearGradient x1="50.0089873%" y1="1.59064861e-14%" x2="50.0089873%" y2="100%" id="linearGradient-77">
            <stop stop-color="#FFD27D" offset="0%"></stop>
            <stop stop-color="#E59359" offset="68%"></stop>
            <stop stop-color="#EA9358" offset="100%"></stop>
        </linearGradient>
        <linearGradient x1="50.0090134%" y1="1.59064861e-14%" x2="50.0090134%" y2="100%" id="linearGradient-78">
            <stop stop-color="#FFD17D" offset="0%"></stop>
            <stop stop-color="#E59259" offset="68%"></stop>
            <stop stop-color="#EA9358" offset="100%"></stop>
        </linearGradient>
        <linearGradient x1="50.0090397%" y1="0.0223863891%" x2="50.0090397%" y2="100.022386%" id="linearGradient-79">
            <stop stop-color="#FFD17D" offset="0%"></stop>
            <stop stop-color="#E49158" offset="68%"></stop>
            <stop stop-color="#EA9358" offset="100%"></stop>
        </linearGradient>
        <linearGradient x1="50.0090662%" y1="1.59064861e-14%" x2="50.0090662%" y2="100%" id="linearGradient-80">
            <stop stop-color="#FFD17D" offset="0%"></stop>
            <stop stop-color="#E49157" offset="68%"></stop>
            <stop stop-color="#EA9358" offset="100%"></stop>
        </linearGradient>
        <linearGradient x1="50.0090928%" y1="1.59064861e-14%" x2="50.0090928%" y2="100%" id="linearGradient-81">
            <stop stop-color="#FFD07D" offset="0%"></stop>
            <stop stop-color="#E39057" offset="68%"></stop>
            <stop stop-color="#EA9358" offset="100%"></stop>
        </linearGradient>
        <linearGradient x1="49.9845888%" y1="1.59064861e-14%" x2="49.9845888%" y2="100%" id="linearGradient-82">
            <stop stop-color="#FFD07D" offset="0%"></stop>
            <stop stop-color="#E38F56" offset="68%"></stop>
            <stop stop-color="#EA9358" offset="100%"></stop>
        </linearGradient>
        <linearGradient x1="49.9876279%" y1="1.59064861e-14%" x2="49.9876279%" y2="100%" id="linearGradient-83">
            <stop stop-color="#FFD07C" offset="0%"></stop>
            <stop stop-color="#E28E55" offset="68%"></stop>
            <stop stop-color="#EA9358" offset="100%"></stop>
        </linearGradient>
        <linearGradient x1="49.9875912%" y1="1.59064861e-14%" x2="49.9875912%" y2="100%" id="linearGradient-84">
            <stop stop-color="#FFD07C" offset="0%"></stop>
            <stop stop-color="#E28D55" offset="68%"></stop>
            <stop stop-color="#EA9358" offset="100%"></stop>
        </linearGradient>
        <linearGradient x1="49.9875544%" y1="1.59064861e-14%" x2="49.9875544%" y2="100%" id="linearGradient-85">
            <stop stop-color="#FFCF7C" offset="0%"></stop>
            <stop stop-color="#E18C54" offset="68%"></stop>
            <stop stop-color="#EA9358" offset="100%"></stop>
        </linearGradient>
        <linearGradient x1="50.0123336%" y1="1.59100478e-14%" x2="50.0123336%" y2="100.022391%" id="linearGradient-86">
            <stop stop-color="#FFCF7C" offset="0%"></stop>
            <stop stop-color="#E18C53" offset="68%"></stop>
            <stop stop-color="#EA9358" offset="100%"></stop>
        </linearGradient>
        <linearGradient x1="50.0123704%" y1="1.59064861e-14%" x2="50.0123704%" y2="100%" id="linearGradient-87">
            <stop stop-color="#FFCF7C" offset="0%"></stop>
            <stop stop-color="#E08B53" offset="68%"></stop>
            <stop stop-color="#EA9358" offset="100%"></stop>
        </linearGradient>
        <linearGradient x1="50.0124074%" y1="1.59100478e-14%" x2="50.0124074%" y2="100.022391%" id="linearGradient-88">
            <stop stop-color="#FFCE7C" offset="0%"></stop>
            <stop stop-color="#E08A52" offset="68%"></stop>
            <stop stop-color="#EA9358" offset="100%"></stop>
        </linearGradient>
        <linearGradient x1="50%" y1="7.03653586%" x2="50%" y2="226.251691%" id="linearGradient-89">
            <stop stop-color="#D07854" offset="0%"></stop>
            <stop stop-color="#9F513E" offset="100%"></stop>
        </linearGradient>
        <linearGradient x1="49.9781704%" y1="-4.00552815%" x2="49.9781704%" y2="146.934496%" id="linearGradient-90">
            <stop stop-color="#FFD47E" offset="0%"></stop>
            <stop stop-color="#F4A966" offset="68%"></stop>
            <stop stop-color="#EA9358" offset="100%"></stop>
        </linearGradient>
        <linearGradient x1="50.0019173%" y1="-4.0033781%" x2="50.0019173%" y2="146.923976%" id="linearGradient-91">
            <stop stop-color="#FFD47E" offset="0%"></stop>
            <stop stop-color="#F4AB67" offset="68%"></stop>
            <stop stop-color="#EB965A" offset="100%"></stop>
        </linearGradient>
        <linearGradient x1="49.9872275%" y1="-4.0036775%" x2="49.9872275%" y2="146.972606%" id="linearGradient-92">
            <stop stop-color="#FFD57E" offset="0%"></stop>
            <stop stop-color="#F5AD68" offset="68%"></stop>
            <stop stop-color="#EC995C" offset="100%"></stop>
        </linearGradient>
        <linearGradient x1="50.0092282%" y1="-4.00083408%" x2="50.0092282%" y2="146.942915%" id="linearGradient-93">
            <stop stop-color="#FFD57E" offset="0%"></stop>
            <stop stop-color="#F5AF69" offset="68%"></stop>
            <stop stop-color="#EC9C5D" offset="100%"></stop>
        </linearGradient>
        <linearGradient x1="50.0358075%" y1="-4.03584368%" x2="50.0358075%" y2="146.947951%" id="linearGradient-94">
            <stop stop-color="#FFD57E" offset="0%"></stop>
            <stop stop-color="#F5B16A" offset="68%"></stop>
            <stop stop-color="#ED9F5F" offset="100%"></stop>
        </linearGradient>
        <linearGradient x1="50.0037517%" y1="-4.00511613%" x2="50.0037517%" y2="147.225102%" id="linearGradient-95">
            <stop stop-color="#FFD57E" offset="0%"></stop>
            <stop stop-color="#F6B46C" offset="68%"></stop>
            <stop stop-color="#EEA261" offset="100%"></stop>
        </linearGradient>
        <linearGradient x1="50.0452918%" y1="-3.99337921%" x2="50.0452918%" y2="146.842258%" id="linearGradient-96">
            <stop stop-color="#FFD57E" offset="0%"></stop>
            <stop stop-color="#F6B66D" offset="68%"></stop>
            <stop stop-color="#EFA563" offset="100%"></stop>
        </linearGradient>
        <linearGradient x1="50.0130548%" y1="-4.03310638%" x2="50.0130548%" y2="146.91471%" id="linearGradient-97">
            <stop stop-color="#FFD57E" offset="0%"></stop>
            <stop stop-color="#F7B86E" offset="68%"></stop>
            <stop stop-color="#F0A964" offset="100%"></stop>
        </linearGradient>
        <linearGradient x1="50.003775%" y1="-3.99127907%" x2="50.003775%" y2="146.911322%" id="linearGradient-98">
            <stop stop-color="#FFD57E" offset="0%"></stop>
            <stop stop-color="#F7BA6F" offset="68%"></stop>
            <stop stop-color="#F0AC66" offset="100%"></stop>
        </linearGradient>
        <linearGradient x1="49.9902768%" y1="-3.84619014%" x2="49.9902768%" y2="146.851731%" id="linearGradient-99">
            <stop stop-color="#FFD57E" offset="0%"></stop>
            <stop stop-color="#F8BC70" offset="68%"></stop>
            <stop stop-color="#F1AF68" offset="100%"></stop>
        </linearGradient>
        <linearGradient x1="49.9776538%" y1="-3.91503866%" x2="49.9776538%" y2="146.866569%" id="linearGradient-100">
            <stop stop-color="#FFD67E" offset="0%"></stop>
            <stop stop-color="#F8BF71" offset="68%"></stop>
            <stop stop-color="#F2B26A" offset="100%"></stop>
        </linearGradient>
        <linearGradient x1="49.9903756%" y1="-3.91344659%" x2="49.9903756%" y2="146.883732%" id="linearGradient-101">
            <stop stop-color="#FFD67E" offset="0%"></stop>
            <stop stop-color="#F9C173" offset="68%"></stop>
            <stop stop-color="#F3B66C" offset="100%"></stop>
        </linearGradient>
        <linearGradient x1="49.9125394%" y1="-3.88523577%" x2="49.9125394%" y2="146.894899%" id="linearGradient-102">
            <stop stop-color="#FED67E" offset="0%"></stop>
            <stop stop-color="#F9C374" offset="68%"></stop>
            <stop stop-color="#F4B96E" offset="100%"></stop>
        </linearGradient>
        <linearGradient x1="49.9952491%" y1="-3.9445786%" x2="49.9952491%" y2="146.917479%" id="linearGradient-103">
            <stop stop-color="#FED67E" offset="0%"></stop>
            <stop stop-color="#F9C575" offset="68%"></stop>
            <stop stop-color="#F5BC6F" offset="100%"></stop>
        </linearGradient>
        <linearGradient x1="49.9810582%" y1="-3.95338563%" x2="49.9810582%" y2="146.890997%" id="linearGradient-104">
            <stop stop-color="#FED67E" offset="0%"></stop>
            <stop stop-color="#FAC776" offset="68%"></stop>
            <stop stop-color="#F6BF71" offset="100%"></stop>
        </linearGradient>
        <linearGradient x1="49.8662358%" y1="-3.91815302%" x2="49.8662358%" y2="146.872356%" id="linearGradient-105">
            <stop stop-color="#FED67E" offset="0%"></stop>
            <stop stop-color="#FACA77" offset="68%"></stop>
            <stop stop-color="#F7C373" offset="100%"></stop>
        </linearGradient>
        <linearGradient x1="50.0490211%" y1="-3.98127253%" x2="50.0490211%" y2="147.143827%" id="linearGradient-106">
            <stop stop-color="#FED67E" offset="0%"></stop>
            <stop stop-color="#FBCC79" offset="68%"></stop>
            <stop stop-color="#F8C675" offset="100%"></stop>
        </linearGradient>
        <linearGradient x1="50.0146593%" y1="-3.98774757%" x2="50.0146593%" y2="146.940909%" id="linearGradient-107">
            <stop stop-color="#FED67F" offset="0%"></stop>
            <stop stop-color="#FBCE7A" offset="68%"></stop>
            <stop stop-color="#F9C977" offset="100%"></stop>
        </linearGradient>
        <linearGradient x1="50.0212242%" y1="-3.99783162%" x2="50.0212242%" y2="147.007479%" id="linearGradient-108">
            <stop stop-color="#FED67F" offset="0%"></stop>
            <stop stop-color="#FCD07B" offset="68%"></stop>
            <stop stop-color="#FACD79" offset="100%"></stop>
        </linearGradient>
        <linearGradient x1="50.0814425%" y1="-4.00574586%" x2="50.0814425%" y2="146.99516%" id="linearGradient-109">
            <stop stop-color="#FED77F" offset="0%"></stop>
            <stop stop-color="#FCD27C" offset="68%"></stop>
            <stop stop-color="#FBD07B" offset="100%"></stop>
        </linearGradient>
        <linearGradient x1="49.9446098%" y1="-4.0054%" x2="49.9446098%" y2="146.90449%" id="linearGradient-110">
            <stop stop-color="#FDD77F" offset="0%"></stop>
            <stop stop-color="#FDD57D" offset="68%"></stop>
            <stop stop-color="#FCD37D" offset="100%"></stop>
        </linearGradient>
        <linearGradient x1="50%" y1="3.34448161%" x2="50%" y2="108.528428%" id="linearGradient-111">
            <stop stop-color="#802D19" offset="0%"></stop>
            <stop stop-color="#A45443" offset="100%"></stop>
        </linearGradient>
        <linearGradient x1="22.4676489%" y1="73.2755849%" x2="96.8968348%" y2="-8.86698484%" id="linearGradient-112">
            <stop stop-color="#C57151" offset="0%"></stop>
            <stop stop-color="#802D19" offset="100%"></stop>
        </linearGradient>
        <linearGradient x1="-0.581391686%" y1="-27.1284004%" x2="87.5580566%" y2="106.915667%" id="linearGradient-113">
            <stop stop-color="#FFD47E" offset="0%"></stop>
            <stop stop-color="#F4A966" offset="22%"></stop>
            <stop stop-color="#C57151" offset="100%"></stop>
        </linearGradient>
    </defs>
    <g id="Page-1" stroke="none" stroke-width="1" fill="none" fill-rule="evenodd">
        <g id="bell" transform="translate(0.737663, 0.780000)">
            <path d="M29.4723373,0.7 C32.3651518,0.7 34.9729316,2.44312838 36.0790273,5.11612817 C37.1851229,7.78912796 36.5715642,10.8652535 34.5246046,12.9093503 C32.4776449,14.953447 29.4006637,15.5626999 26.7292146,14.4528642 C24.0577655,13.3430286 22.3182914,10.7328116 22.3223303,7.84 C22.3278547,3.89506985 25.5274033,0.7 29.4723373,0.7 L29.4723373,0.7 Z M29.4723373,3.57 C27.7452835,3.57 26.1882866,4.6103521 25.5273717,6.20594174 C24.8664568,7.80153139 25.2317799,9.63813451 26.4529914,10.859346 C27.6742028,12.0805574 29.5108059,12.4458805 31.1063956,11.7849656 C32.7019852,11.1240507 33.7423373,9.56705379 33.7423373,7.84 C33.7423373,5.48174412 31.8305932,3.57 29.4723373,3.57 L29.4723373,3.57 Z" id="Shape" fill="url(#linearGradient-1)"></path>
            <path d="M29.4723373,-3.55271368e-15 C32.3651518,-3.55271368e-15 34.9729316,1.74312838 36.0790273,4.41612817 C37.1851229,7.08912796 36.5715642,10.1652535 34.5246046,12.2093503 C32.4776449,14.253447 29.4006637,14.8626999 26.7292146,13.7528642 C24.0577655,12.6430286 22.3182914,10.0328116 22.3223303,7.14 C22.3278547,3.19506985 25.5274033,-3.55271368e-15 29.4723373,-3.55271368e-15 Z M29.4723373,2.86998826 C27.7394255,2.86595585 26.1750846,3.90725919 25.5100584,5.50749035 C24.8450323,7.10772152 25.2105749,8.95104837 26.4359319,10.1764054 C27.6612889,11.4017624 29.5046158,11.767305 31.104847,11.1022789 C32.7050781,10.4372527 33.7463815,8.87291176 33.742349,7.14 C33.742349,6.00752559 33.2924636,4.92143438 32.4916833,4.12065404 C31.6909029,3.31987371 30.6048117,2.86998826 29.4723373,2.86998826 L29.4723373,2.86998826 Z" id="Shape" fill="url(#linearGradient-2)"></path>
            <path d="M57.6023373,57.6 C58.1223373,50.84 52.6823373,48.49 51.9523373,42.02 C51.9523373,41.55 51.8723373,35.68 51.8723373,35.23 C51.8723373,22.78 40.6323373,12.6 29.4723373,12.6 C18.3123373,12.6 9.18233731,22.78 9.18233731,35.22 C9.18233731,35.67 9.18233731,41.54 9.10233731,42.01 C8.37233731,48.48 2.93233731,50.83 3.46233731,57.59 C31.3723373,58.89 29.6923373,58.89 57.6023373,57.6 L57.6023373,57.6 Z" id="Path" fill="url(#linearGradient-3)"></path>
            <path d="M58.9023373,57.58 C59.4923373,50.74 53.3423373,48.35 52.5123373,41.79 C52.4523373,41.32 52.4223373,35.37 52.4223373,34.91 C52.4223373,22.235065 42.1472723,11.96 29.4723373,11.96 C16.7974023,11.96 6.52233731,22.235065 6.52233731,34.91 C6.52233731,35.37 6.52233731,41.32 6.43233731,41.79 C5.60233731,48.35 -0.567662689,50.79 0.0423373109,57.58 C31.6223373,58.9 27.3223373,58.9 58.9023373,57.58 L58.9023373,57.58 Z" id="Path" fill="url(#linearGradient-4)"></path>
            <path d="M58.8323373,57.58 C59.4223373,50.74 53.3123373,48.36 52.4823373,41.8 C52.4823373,41.33 52.3923373,35.38 52.3923373,34.92 C52.3923373,22.2892478 42.1530895,12.05 29.5223373,12.05 C16.8915851,12.05 6.65233731,22.2892478 6.65233731,34.92 C6.65233731,35.38 6.65233731,41.33 6.56233731,41.8 C5.73233731,48.36 -0.377662689,50.74 0.202337311,57.58 C31.6123373,58.9 27.4323373,58.9 58.8323373,57.58 Z" id="Path" fill="url(#linearGradient-5)"></path>
            <path d="M58.7723373,57.58 C59.3623373,50.75 53.2823373,48.36 52.4623373,41.81 C52.4023373,41.34 52.3723373,35.4 52.3723373,34.94 C52.3723373,22.3479077 42.1644296,12.14 29.5723373,12.14 C16.980245,12.14 6.77233731,22.3479077 6.77233731,34.94 C6.77233731,35.4 6.77233731,41.34 6.68233731,41.81 C5.86233731,48.36 -0.217662689,50.75 0.372337311,57.58 C31.5923373,58.9 27.5523373,58.9 58.7723373,57.58 L58.7723373,57.58 Z" id="Path" fill="url(#linearGradient-6)"></path>
            <path d="M58.7123373,57.58 C59.2623373,50.75 53.2623373,48.37 52.4323373,41.82 C52.3723373,41.35 52.3423373,35.41 52.3423373,34.95 C52.2499781,22.3528094 42.069396,12.1588728 29.4723373,12.05 C16.9333928,12.181838 6.85216737,22.4104628 6.90233731,34.95 C6.90233731,35.41 6.90233731,41.35 6.81233731,41.82 C6.00233731,48.37 -0.0476626891,50.75 0.532337311,57.58 C31.5823373,58.9 27.6623373,58.9 58.7123373,57.58 L58.7123373,57.58 Z" id="Path" fill="url(#linearGradient-7)"></path>
            <path d="M58.6523373,57.58 C59.2323373,50.76 53.2123373,48.38 52.4023373,41.83 C52.4023373,41.36 52.3223373,35.43 52.3223373,34.97 C52.2140336,22.3888929 42.0532357,12.2103081 29.4723373,12.08 C17.1323373,12.08 7.03233731,22.38 7.03233731,34.97 C7.03233731,35.43 7.03233731,41.36 6.94233731,41.83 C6.13233731,48.38 0.112337311,50.76 0.692337311,57.58 C31.5723373,58.9 27.7723373,58.9 58.6523373,57.58 L58.6523373,57.58 Z" id="Path" fill="url(#linearGradient-8)"></path>
            <path d="M58.5923373,57.59 C59.1623373,50.76 53.1823373,48.38 52.3823373,41.84 C52.3223373,41.37 52.2923373,35.44 52.2923373,34.99 C52.1735964,22.4265586 42.0354236,12.2617298 29.4723373,12.11 C17.2023373,12.11 7.15233731,22.4 7.15233731,34.99 C7.15233731,35.44 7.15233731,41.37 7.06233731,41.84 C6.26233731,48.38 0.262337311,50.76 0.862337311,57.59 C31.5623373,58.9 27.8823373,58.9 58.5923373,57.59 Z" id="Path" fill="url(#linearGradient-9)"></path>
            <path d="M58.5323373,57.59 C59.1023373,50.77 53.1523373,48.39 52.3523373,41.86 C52.2923373,41.39 52.2623373,35.46 52.2623373,35 C52.1278458,22.4580908 42.013775,12.3129545 29.4723373,12.14 C17.2623373,12.14 7.26233731,22.43 7.26233731,35 C7.26233731,35.46 7.26233731,41.39 7.17233731,41.86 C6.37233731,48.39 0.422337311,50.77 1.00233731,57.59 C31.5523373,58.9 28.0023373,58.9 58.5323373,57.59 L58.5323373,57.59 Z" id="Path" fill="url(#linearGradient-10)"></path>
            <path d="M58.4623373,57.59 C59.0323373,50.77 53.1223373,48.4 52.3223373,41.87 C52.3223373,41.4 52.2423373,35.47 52.2423373,35.02 C52.0653837,22.5135801 41.9785134,12.4134201 29.4723373,12.22 C17.3423373,12.22 7.41233731,22.45 7.41233731,35.02 C7.41233731,35.47 7.41233731,41.4 7.32233731,41.87 C6.52233731,48.4 0.612337311,50.77 1.18233731,57.59 C31.5423373,58.9 28.1123373,58.9 58.4623373,57.59 Z" id="Path" fill="url(#linearGradient-11)"></path>
            <path d="M58.4023373,57.59 C58.9723373,50.78 53.0923373,48.4 52.3023373,41.88 C52.2623373,41.41 52.2623373,35.49 52.2623373,35.03 C52.0852449,22.5142356 41.9879416,12.4080711 29.4723373,12.22 C17.4123373,12.22 7.53233731,22.47 7.53233731,35.03 C7.53233731,35.49 7.53233731,41.41 7.45233731,41.88 C6.66233731,48.4 0.782337311,50.78 1.34233731,57.59 C31.5223373,58.9 28.2623373,58.9 58.4023373,57.59 L58.4023373,57.59 Z" id="Path" fill="url(#linearGradient-12)"></path>
            <path d="M58.3423373,57.59 C58.9023373,50.78 53.0623373,48.41 52.2723373,41.89 C52.2223373,41.42 52.1823373,35.5 52.1823373,35.05 C52.0067062,22.5613258 41.9599125,12.4614447 29.4723373,12.22 C17.4723373,12.22 7.66233731,22.49 7.66233731,35.04 C7.66233731,35.49 7.66233731,41.41 7.57233731,41.88 C6.79233731,48.4 0.942337311,50.77 1.51233731,57.58 C31.5123373,58.9 28.3323373,58.9 58.3423373,57.59 L58.3423373,57.59 Z" id="Path" fill="url(#linearGradient-13)"></path>
            <path d="M58.2623373,57.59 C58.8223373,50.79 53.0123373,48.42 52.2623373,41.9 C52.2623373,41.43 52.1823373,35.52 52.1823373,35.06 C52.0016845,22.571786 41.9593167,12.4719322 29.4723373,12.22 C17.5423373,12.22 7.79233731,22.52 7.79233731,35.06 C7.79233731,35.52 7.79233731,41.43 7.70233731,41.9 C6.92233731,48.42 1.11233731,50.79 1.70233731,57.59 C31.5023373,58.9 28.4523373,58.9 58.2623373,57.59 Z" id="Path" fill="url(#linearGradient-14)"></path>
            <path d="M58.2623373,57.59 C58.8123373,50.79 53.0423373,48.42 52.2623373,41.91 C52.2023373,41.44 52.1723373,35.53 52.1723373,35.08 C52.1723373,22.55 41.3623373,12.29 29.5123373,12.29 C17.6623373,12.29 7.91233731,22.55 7.91233731,35.08 C7.91233731,35.53 7.91233731,41.44 7.83233731,41.91 C7.05233731,48.42 1.27233731,50.79 1.83233731,57.59 C31.4923373,58.9 28.5623373,58.9 58.2623373,57.59 Z" id="Path" fill="url(#linearGradient-15)"></path>
            <path d="M58.1523373,57.59 C58.7123373,50.8 52.9623373,48.43 52.1523373,41.92 C52.1023373,41.45 52.0723373,35.55 52.0723373,35.09 C52.1123373,22.57 41.2623373,12.32 29.4723373,12.32 C17.6823373,12.32 8.04233731,22.57 8.04233731,35.09 C8.04233731,35.55 8.04233731,41.45 7.96233731,41.92 C7.18233731,48.43 1.44233731,50.8 1.96233731,57.59 C31.4823373,58.9 28.6723373,58.9 58.1523373,57.59 L58.1523373,57.59 Z" id="Path" fill="url(#linearGradient-16)"></path>
            <path d="M58.0923373,57.59 C58.6423373,50.8 52.9323373,48.44 52.1723373,41.93 C52.1123373,41.46 52.0823373,35.56 52.0823373,35.11 C52.0823373,22.59 41.1923373,12.35 29.4723373,12.35 C17.7523373,12.35 8.17233731,22.59 8.17233731,35.11 C8.17233731,35.56 8.17233731,41.46 8.08233731,41.93 C7.32233731,48.44 1.61233731,50.8 2.16233731,57.59 C31.4623373,58.9 28.7823373,58.9 58.0923373,57.59 L58.0923373,57.59 Z" id="Path" fill="url(#linearGradient-17)"></path>
            <path d="M58.0323373,57.59 C58.5823373,50.81 52.9023373,48.44 52.1423373,41.94 C52.0823373,41.48 52.0523373,35.58 52.0523373,35.12 C52.0523373,22.62 41.1223373,12.38 29.4723373,12.38 C17.8223373,12.38 8.26233731,22.62 8.26233731,35.12 C8.26233731,35.58 8.26233731,41.47 8.17233731,41.94 C7.41233731,48.44 1.73233731,50.81 2.28233731,57.59 C31.4523373,58.9 28.9023373,58.9 58.0323373,57.59 L58.0323373,57.59 Z" id="Path" fill="url(#linearGradient-18)"></path>
            <path d="M57.9723373,57.59 C58.5123373,50.81 52.8723373,48.45 52.1123373,41.95 C52.1123373,41.49 52.0323373,35.59 52.0323373,35.14 C52.0323373,22.64 41.0323373,12.41 29.4723373,12.41 C17.9123373,12.41 8.47233731,22.64 8.47233731,35.14 C8.47233731,35.59 8.47233731,41.49 8.39233731,41.95 C7.63233731,48.45 1.99233731,50.81 2.53233731,57.59 C31.4423373,58.9 29.0123373,58.9 57.9723373,57.59 Z" id="Path" fill="url(#linearGradient-19)"></path>
            <path d="M57.9123373,57.59 C58.4523373,50.82 52.8423373,48.46 52.0923373,41.96 C52.0323373,41.5 52.0023373,35.61 52.0023373,35.15 C52.0023373,22.66 41.0023373,12.44 29.4723373,12.44 C17.9423373,12.44 8.55233731,22.66 8.55233731,35.15 C8.55233731,35.61 8.55233731,41.5 8.47233731,41.96 C7.71233731,48.46 2.10233731,50.82 2.64233731,57.59 C31.4323373,58.9 29.1223373,58.9 57.9123373,57.59 Z" id="Path" fill="url(#linearGradient-20)"></path>
            <path d="M57.8423373,57.59 C58.3823373,50.82 52.8423373,48.46 52.0623373,41.98 C52.0623373,41.51 51.9823373,35.62 51.9823373,35.17 C51.9823373,22.69 40.9123373,12.47 29.4723373,12.47 C18.0323373,12.47 8.68233731,22.69 8.68233731,35.22 C8.68233731,35.67 8.68233731,41.56 8.59233731,42.03 C7.84233731,48.51 2.27233731,50.87 2.81233731,57.64 C31.4223373,58.9 29.2623373,58.9 57.8423373,57.59 L57.8423373,57.59 Z" id="Path" fill="url(#linearGradient-21)"></path>
            <path d="M57.7823373,57.59 C58.3223373,50.83 52.7823373,48.47 52.0323373,41.99 C52.0323373,41.52 51.9523373,35.64 51.9523373,35.19 C51.9523373,22.71 40.8423373,12.5 29.4723373,12.5 C18.1023373,12.5 8.80233731,22.71 8.80233731,35.22 C8.80233731,35.67 8.80233731,41.55 8.72233731,42.02 C7.97233731,48.5 2.44233731,50.86 2.97233731,57.62 C31.4023373,58.9 29.3523373,58.9 57.7823373,57.59 Z" id="Path" fill="url(#linearGradient-22)"></path>
            <path d="M57.7223373,57.59 C58.2523373,50.83 52.7223373,48.48 52.0123373,42 C51.9523373,41.53 51.9223373,35.65 51.9223373,35.2 C51.9223373,22.73 40.7723373,12.53 29.4723373,12.53 C18.1723373,12.53 8.93233731,22.73 8.93233731,35.22 C8.93233731,35.67 8.93233731,41.55 8.85233731,42.02 C8.11233731,48.5 2.60233731,50.85 3.13233731,57.61 C31.3923373,58.9 29.4623373,58.9 57.7223373,57.59 L57.7223373,57.59 Z" id="Path" fill="url(#linearGradient-23)"></path>
            <path d="M57.6623373,57.6 C58.1923373,50.84 52.7223373,48.48 51.9823373,42.01 C51.9823373,41.54 51.9023373,35.67 51.9023373,35.22 C51.9023373,22.76 40.7023373,12.57 29.4723373,12.57 C18.2423373,12.57 9.06233731,22.76 9.06233731,35.22 C9.06233731,35.67 9.06233731,41.54 8.97233731,42.01 C8.26233731,48.48 2.77233731,50.84 3.26233731,57.6 C31.3823373,58.89 29.5723373,58.89 57.6623373,57.6 Z" id="Path" fill="url(#linearGradient-24)"></path>
            <path d="M57.6023373,57.6 C58.1223373,50.84 52.6823373,48.49 51.9523373,42.02 C51.9523373,41.55 51.8723373,35.68 51.8723373,35.23 C51.8723373,22.78 40.6323373,12.6 29.4723373,12.6 C18.3123373,12.6 9.18233731,22.78 9.18233731,35.22 C9.18233731,35.67 9.18233731,41.54 9.10233731,42.01 C8.37233731,48.48 2.93233731,50.83 3.46233731,57.59 C31.3723373,58.89 29.6923373,58.89 57.6023373,57.6 L57.6023373,57.6 Z" id="Path" fill="url(#linearGradient-3)"></path>
            <path d="M28.6523373,58.56 C32.0323373,58.56 35.2223373,58.56 39.2023373,58.4 C41.0723373,57.49 42.2023373,54.49 40.7023373,48.84 C39.2023373,43.19 26.4523373,44.53 15.8223373,45 C5.19233731,45.47 5.43233731,53.66 5.43233731,53.66 C5.43233731,53.66 21.1723373,57.02 28.6523373,58.56 Z" id="Path" fill="url(#linearGradient-25)"></path>
            <path d="M28.4423373,58.56 C31.7423373,58.56 34.8623373,58.56 38.7623373,58.4 C40.5923373,57.5 41.7023373,54.66 40.2623373,49.08 C38.8223373,43.5 26.3223373,44.84 15.9223373,45.3 C5.52233731,45.76 5.69216694,53.72 5.69216694,53.72 C5.69216694,53.72 21.1023373,57.04 28.4423373,58.56 L28.4423373,58.56 Z" id="Path" fill="url(#linearGradient-26)"></path>
            <path d="M28.2623373,58.56 C31.4923373,58.56 34.5523373,58.56 38.3723373,58.41 C40.1623373,57.51 41.2723373,54.84 39.8523373,49.32 C38.4323373,43.8 26.2323373,45.15 16.0523373,45.6 C5.87233731,46.05 6.05212732,53.77 6.05212732,53.77 C6.05212732,53.77 21.0423373,57.06 28.2623373,58.56 Z" id="Path" fill="url(#linearGradient-27)"></path>
            <path d="M28.0023373,58.56 C31.1623373,58.56 34.1623373,58.56 37.8923373,58.41 C39.6423373,57.53 40.7523373,55.02 39.3723373,49.57 C37.9923373,44.12 26.0723373,45.46 16.1023373,45.91 C6.13233731,46.36 6.26229451,53.83 6.26229451,53.83 C6.26229451,53.83 20.9823373,57.07 28.0023373,58.56 Z" id="Path" fill="url(#linearGradient-28)"></path>
            <path d="M27.7823373,58.56 C30.8823373,58.56 33.7823373,58.56 37.4623373,58.41 C39.1723373,57.54 40.2823373,55.19 38.9223373,49.81 C37.5623373,44.43 25.9223373,45.81 16.1923373,46.21 C6.46233731,46.61 6.48233714,53.89 6.48233714,53.89 C6.48233714,53.89 20.9223373,57.09 27.7823373,58.56 L27.7823373,58.56 Z" id="Path" fill="url(#linearGradient-29)"></path>
            <path d="M27.5723373,58.56 C30.5723373,58.56 33.4523373,58.56 37.0223373,58.41 C38.7023373,57.55 39.8023373,55.41 38.4823373,50.05 C37.1623373,44.69 25.8123373,46.05 16.2823373,46.51 C6.75233731,46.97 6.75233731,53.94 6.75233731,53.94 C6.75233731,53.94 20.8623373,57.11 27.5723373,58.56 Z" id="Path" fill="url(#linearGradient-30)"></path>
            <path d="M27.3523373,58.56 C30.3523373,58.56 33.1023373,58.56 36.5823373,58.41 C38.2223373,57.56 39.3223373,55.55 38.0323373,50.29 C36.7423373,45.03 25.6823373,46.39 16.3823373,46.82 C7.08233731,47.25 7.01233731,54 7.01233731,54 C7.01233731,54 20.7923373,57.13 27.3523373,58.56 L27.3523373,58.56 Z" id="Path" fill="url(#linearGradient-31)"></path>
            <path d="M27.1323373,58.56 C30.0223373,58.56 32.7423373,58.56 36.1323373,58.42 C37.7323373,57.58 38.8323373,55.72 37.5723373,50.53 C36.3123373,45.34 25.5723373,46.7 16.4523373,47.12 C7.33233731,47.54 7.26233731,54.06 7.26233731,54.06 C7.26233731,54.06 20.7323373,57.15 27.1323373,58.56 Z" id="Path" fill="url(#linearGradient-32)"></path>
            <path d="M26.9123373,58.56 C29.7323373,58.56 32.3923373,58.56 35.7123373,58.42 C37.2723373,57.59 38.3723373,55.9 37.1423373,50.78 C35.9123373,45.66 25.4223373,47 16.5623373,47.42 C7.70233731,47.84 7.56233731,54.12 7.56233731,54.12 C7.56233731,54.12 20.6723373,57.16 26.9123373,58.56 Z" id="Path" fill="url(#linearGradient-33)"></path>
            <path d="M26.7023373,58.56 C29.4423373,58.56 32.0423373,58.56 35.2823373,58.42 C36.8023373,57.6 37.9023373,56.07 36.7023373,51.02 C35.5023373,45.97 25.3023373,47.31 16.7023373,47.73 C8.10233731,48.15 7.80233731,54.22 7.80233731,54.22 C7.80233731,54.22 20.6123373,57.22 26.7023373,58.56 L26.7023373,58.56 Z" id="Path" fill="url(#linearGradient-34)"></path>
            <path d="M26.4823373,58.56 C29.1523373,58.56 31.6823373,58.56 34.8423373,58.42 C36.3223373,57.61 37.4223373,56.22 36.2623373,51.22 C35.1023373,46.22 25.1723373,47.62 16.7423373,48.03 C8.31233731,48.44 8.07233731,54.22 8.07233731,54.22 C8.07233731,54.22 20.5523373,57.22 26.4823373,58.56 Z" id="Path" fill="url(#linearGradient-35)"></path>
            <path d="M26.2623373,58.56 C28.8723373,58.56 31.3323373,58.56 34.4023373,58.42 C35.8523373,57.63 36.9423373,56.42 35.8123373,51.5 C34.6823373,46.58 25.0423373,47.93 16.8123373,48.33 C8.58233731,48.73 8.30233731,54.33 8.30233731,54.33 C8.30233731,54.33 20.4823373,57.22 26.2623373,58.56 Z" id="Path" fill="url(#linearGradient-36)"></path>
            <path d="M26.0523373,58.56 C28.5823373,58.56 30.9823373,58.56 33.9723373,58.43 C35.3723373,57.64 36.4723373,56.6 35.3623373,51.75 C34.2523373,46.9 24.9123373,48.22 16.9323373,48.64 C8.95233731,49.06 8.60233731,54.35 8.60233731,54.35 C8.60233731,54.35 20.4223373,57.22 26.0523373,58.56 L26.0523373,58.56 Z" id="Path" fill="url(#linearGradient-37)"></path>
            <path d="M25.8323373,58.56 C28.2923373,58.56 30.6223373,58.56 33.5323373,58.43 C34.9023373,57.65 35.9923373,56.78 34.9223373,51.99 C33.8523373,47.2 24.7823373,48.55 17.0223373,48.99 C9.26233731,49.43 8.86233731,54.45 8.86233731,54.45 C8.86233731,54.45 20.3623373,57.22 25.8323373,58.56 Z" id="Path" fill="url(#linearGradient-38)"></path>
            <path d="M25.6123373,58.56 C28.0023373,58.56 30.2723373,58.56 33.1023373,58.43 C34.4223373,57.67 35.5223373,56.96 34.4723373,52.23 C33.4223373,47.5 24.6623373,48.86 17.1123373,49.23 C9.56233731,49.6 9.11233731,54.44 9.11233731,54.44 C9.11233731,54.44 20.2623373,57.27 25.6123373,58.56 Z" id="Path" fill="url(#linearGradient-39)"></path>
            <path d="M25.3923373,58.56 C27.7223373,58.56 29.9223373,58.56 32.6623373,58.43 C33.9523373,57.68 35.0423373,57.13 34.0223373,52.43 C33.0023373,47.73 24.5323373,49.22 17.2023373,49.55 C9.87233731,49.88 9.39233731,54.55 9.39233731,54.55 C9.39233731,54.55 20.2623373,57.29 25.3923373,58.56 L25.3923373,58.56 Z" id="Path" fill="url(#linearGradient-40)"></path>
            <path d="M25.1823373,58.56 C27.4323373,58.56 29.5623373,58.56 32.1823373,58.43 C33.4223373,57.69 34.5123373,57.31 33.5323373,52.71 C32.5523373,48.11 24.4023373,49.48 17.2623373,49.85 C10.1223373,50.22 9.61233731,54.57 9.61233731,54.57 C9.61233731,54.57 20.1723373,57.31 25.1823373,58.56 Z" id="Path" fill="url(#linearGradient-41)"></path>
            <path d="M24.9623373,58.56 C27.1423373,58.56 29.2123373,58.56 31.7923373,58.44 C33.0023373,57.7 34.0923373,57.44 33.1323373,52.96 C32.1723373,48.48 24.2623373,49.79 17.3923373,50.16 C10.5223373,50.53 9.92233731,54.63 9.92233731,54.63 C9.92233731,54.63 20.1123373,57.33 24.9623373,58.56 Z" id="Path" fill="url(#linearGradient-42)"></path>
            <path d="M24.7423373,58.56 C26.8623373,58.56 28.8623373,58.56 31.3523373,58.44 C32.5223373,57.72 33.6123373,57.66 32.6923373,53.2 C31.7723373,48.74 24.1423373,50.09 17.4823373,50.46 C10.8223373,50.83 10.1823373,54.69 10.1823373,54.69 C10.1823373,54.69 20.0523373,57.34 24.7423373,58.56 L24.7423373,58.56 Z" id="Path" fill="url(#linearGradient-43)"></path>
            <path d="M24.5223373,58.56 C26.5223373,58.56 28.5223373,58.56 30.9223373,58.44 C32.0523373,57.73 33.1423373,57.84 32.2423373,53.44 C31.3423373,49.04 24.0123373,50.44 17.5723373,50.76 C11.1323373,51.08 10.4423373,54.76 10.4423373,54.76 C10.4423373,54.76 19.9923373,57.36 24.5223373,58.56 L24.5223373,58.56 Z" id="Path" fill="url(#linearGradient-44)"></path>
            <path d="M24.3123373,58.56 C26.3123373,58.56 28.1523373,58.56 30.4823373,58.44 C31.5823373,57.74 32.6623373,58.01 31.8023373,53.68 C30.9423373,49.35 23.8923373,50.68 17.6623373,51.07 C11.4323373,51.46 10.7123373,54.8 10.7123373,54.8 C10.7123373,54.8 19.9223373,57.38 24.3123373,58.56 L24.3123373,58.56 Z" id="Path" fill="url(#linearGradient-45)"></path>
            <path d="M24.0923373,58.56 C25.9923373,58.56 27.8023373,58.56 30.0923373,58.44 C31.0923373,57.75 32.2323373,58.19 31.3923373,53.93 C30.5523373,49.67 23.7623373,51.02 17.7623373,51.37 C11.7623373,51.72 10.9723373,54.86 10.9723373,54.86 C10.9723373,54.86 19.8623373,57.4 24.0923373,58.56 L24.0923373,58.56 Z" id="Path" fill="#F6BE6F"></path>
            <path d="M57.2623373,57.6 C57.7823373,50.84 52.3523373,48.49 51.6223373,42.02 C51.5623373,41.55 51.8523373,35.5 51.8523373,35.02 C51.8123373,24.91 44.2623373,14.84 35.2623373,13.6 C39.3923373,19.19 43.2623373,22.7 41.1523373,33.79 C41.1523373,34.24 40.5223373,43.66 40.5523373,44.12 C40.9923373,50.59 42.7423373,49.84 42.4323373,56.6 C41.1624601,56.6924857 39.9056749,56.9170313 38.6823373,57.27 C42.5823373,57.11 51.0423373,57.88 57.2623373,57.6 L57.2623373,57.6 Z" id="Path" fill="url(#linearGradient-46)"></path>
            <path d="M57.1823373,57.6 C57.7123373,50.84 52.2723373,48.49 51.5423373,42.02 C51.5423373,41.55 51.7623373,35.51 51.7623373,35.02 C51.7623373,24.92 44.2623373,14.92 35.2623373,13.6 C39.4623373,19.06 43.2623373,22.66 41.2623373,33.86 C41.2623373,34.31 40.6623373,43.56 40.7023373,44.02 C41.1323373,50.49 42.9423373,49.89 42.6323373,56.64 C41.408734,56.7412738 40.1989308,56.9691591 39.0223373,57.32 C42.9723373,57.16 51.0023373,57.88 57.1823373,57.6 L57.1823373,57.6 Z" id="Path" fill="url(#linearGradient-47)"></path>
            <path d="M57.1523373,57.6 C57.6723373,50.84 52.2423373,48.49 51.5023373,42.02 C51.5023373,41.55 51.7123373,35.52 51.7123373,35.02 C51.7123373,24.93 44.2623373,14.99 35.2623373,13.6 C39.5323373,18.93 43.3923373,22.6 41.4723373,33.93 C41.4723373,34.38 40.9123373,43.46 40.9423373,43.93 C41.3723373,50.4 43.2423373,49.93 42.9423373,56.7 C41.7687446,56.8017017 40.6090622,57.0262645 39.4823373,57.37 C43.3723373,57.22 50.9723373,57.88 57.1523373,57.6 L57.1523373,57.6 Z" id="Path" fill="url(#linearGradient-48)"></path>
            <path d="M57.1123373,57.6 C57.6423373,50.84 52.2023373,48.49 51.4723373,42.02 C51.4723373,41.55 51.6623373,35.52 51.6623373,35.02 C51.6623373,24.88 44.2423373,15.02 35.2423373,13.55 C39.5823373,18.76 43.4523373,22.55 41.6123373,33.95 C41.6123373,34.4 41.0823373,43.31 41.1123373,43.77 C41.5423373,50.24 43.4723373,49.94 43.1623373,56.69 C42.0338146,56.7865061 40.9199634,57.0112893 39.8423373,57.36 C43.7623373,57.22 50.9323373,57.88 57.1123373,57.6 L57.1123373,57.6 Z" id="Path" fill="url(#linearGradient-49)"></path>
            <path d="M57.0823373,57.6 C57.6023373,50.84 52.1623373,48.49 51.4323373,42.02 C51.4323373,41.55 51.6023373,35.53 51.6023373,35.08 C51.6023373,24.94 44.2623373,15.15 35.2623373,13.6 C39.6723373,18.68 43.5523373,22.52 41.8023373,34.07 C41.8023373,34.52 41.2923373,43.26 41.3223373,43.72 C41.7623373,50.19 43.7423373,50.03 43.4423373,56.79 C42.3553622,56.8803754 41.2838238,57.1054321 40.2523373,57.46 C44.1523373,57.3 50.9023373,57.88 57.0823373,57.6 L57.0823373,57.6 Z" id="Path" fill="url(#linearGradient-50)"></path>
            <path d="M57.0423373,57.6 C57.5723373,50.84 52.1323373,48.49 51.4023373,42.02 C51.3423373,41.55 51.5523373,35.54 51.5523373,35.09 C51.5523373,24.95 44.2623373,15.22 35.2623373,13.6 C39.7423373,18.55 43.6323373,22.47 41.9623373,34.14 C41.9623373,34.59 41.4823373,43.14 41.5223373,43.62 C41.9523373,50.09 44.0023373,50.08 43.6923373,56.83 C42.668479,56.9342757 41.6610913,57.1626169 40.6923373,57.51 C44.5523373,57.35 50.8623373,57.88 57.0423373,57.6 L57.0423373,57.6 Z" id="Path" fill="url(#linearGradient-51)"></path>
            <path d="M57.0123373,57.6 C57.5323373,50.84 52.0923373,48.49 51.3623373,42.02 C51.3623373,41.55 51.5023373,35.55 51.5023373,35.1 C51.5023373,24.96 44.2023373,15.3 35.2423373,13.6 C39.7923373,18.42 43.6923373,22.42 42.1023373,34.2 C42.1023373,34.66 41.6623373,43.06 41.6923373,43.52 C42.1223373,49.99 44.2323373,50.13 43.9223373,56.88 C42.9313186,56.9803526 41.956942,57.2054672 41.0223373,57.55 C44.9423373,57.39 50.8223373,57.88 57.0123373,57.6 L57.0123373,57.6 Z" id="Path" fill="url(#linearGradient-52)"></path>
            <path d="M56.9723373,57.6 C57.4923373,50.84 52.0623373,48.49 51.3223373,42.02 C51.3223373,41.55 51.4523373,35.56 51.4523373,35.11 C51.4523373,24.97 44.1923373,15.38 35.2423373,13.6 C39.8623373,18.29 43.7623373,22.37 42.2423373,34.27 C42.2423373,34.72 41.8323373,42.96 41.8623373,43.42 C42.2923373,49.89 44.4623373,50.18 44.1523373,56.93 C43.2058771,57.0251912 42.2771007,57.250655 41.3923373,57.6 C45.3323373,57.44 50.7923373,57.88 56.9723373,57.6 L56.9723373,57.6 Z" id="Path" fill="url(#linearGradient-53)"></path>
            <path d="M56.9323373,57.6 C57.4623373,50.84 52.0223373,48.49 51.2923373,42.02 C51.2923373,41.55 51.4023373,35.57 51.4023373,35.12 C51.4023373,24.98 44.1823373,15.46 35.2423373,13.6 C39.9323373,18.16 43.8423373,22.33 42.4223373,34.34 C42.4223373,34.79 42.0423373,42.86 42.0723373,43.34 C42.5023373,49.81 44.7323373,50.24 44.4223373,57 C43.5204558,57.091299 42.6373301,57.3171365 41.8023373,57.67 C45.7223373,57.49 50.7523373,57.88 56.9323373,57.6 L56.9323373,57.6 Z" id="Path" fill="url(#linearGradient-54)"></path>
            <path d="M56.9023373,57.6 C57.4223373,50.84 51.9823373,48.49 51.2523373,42.02 C51.2523373,41.55 51.3523373,35.58 51.3523373,35.13 C51.3523373,24.99 44.1723373,15.53 35.2423373,13.6 C40.0023373,18.04 43.9223373,22.28 42.5923373,34.41 C42.5923373,34.86 42.2323373,42.76 42.2723373,43.22 C42.7023373,49.69 44.9823373,50.22 44.6723373,57.02 C43.8188348,57.1177867 42.9856261,57.3471721 42.2023373,57.7 C46.1223373,57.54 50.7223373,57.88 56.9023373,57.6 L56.9023373,57.6 Z" id="Path" fill="url(#linearGradient-55)"></path>
            <path d="M56.8623373,57.6 C57.3923373,50.84 51.9523373,48.49 51.2223373,42.02 C51.1623373,41.55 51.3023373,35.59 51.3023373,35.13 C51.2623373,25 44.1623373,15.61 35.2623373,13.6 C40.0923373,17.91 44.0223373,22.23 42.7723373,34.48 C42.7723373,34.93 42.4523373,42.66 42.4823373,43.12 C42.9123373,49.59 45.2623373,50.32 44.9523373,57.07 C43.6123373,57.18 43.7823373,57.41 42.6123373,57.74 C46.5123373,57.58 50.6823373,57.88 56.8623373,57.6 Z" id="Path" fill="url(#linearGradient-56)"></path>
            <path d="M56.8323373,57.6 C57.3523373,50.84 51.9123373,48.49 51.1823373,42.02 C51.1823373,41.55 51.2523373,35.59 51.2523373,35.14 C51.2523373,25.01 44.1523373,15.69 35.2523373,13.6 C40.1523373,17.78 44.0923373,22.19 42.9223373,34.55 C42.9223373,35 42.6323373,42.55 42.6623373,43.02 C43.0923373,49.49 45.5023373,50.37 45.1923373,57.12 C43.8623373,57.22 44.1923373,57.46 42.9923373,57.79 C46.9023373,57.63 50.6423373,57.88 56.8323373,57.6 L56.8323373,57.6 Z" id="Path" fill="url(#linearGradient-57)"></path>
            <path d="M56.7923373,57.6 C57.3123373,50.84 51.8823373,48.49 51.1523373,42.02 C51.0923373,41.55 51.1523373,35.6 51.1523373,35.15 C51.1523373,25.01 44.0923373,15.76 35.1523373,13.6 C40.1523373,17.6 44.0723373,22.14 42.9823373,34.6 C42.9823373,35.05 42.7223373,42.44 42.7523373,42.9 C43.1823373,49.37 45.6523373,50.4 45.3423373,57.15 C44.0123373,57.25 44.4623373,57.48 43.2823373,57.82 C47.2623373,57.68 50.6123373,57.88 56.7923373,57.6 Z" id="Path" fill="url(#linearGradient-58)"></path>
            <path d="M56.7523373,57.6 C57.2823373,50.84 51.8423373,48.49 51.1123373,42.02 C51.1123373,41.55 51.1123373,35.61 51.1123373,35.16 C51.1123373,25.02 44.1123373,15.84 35.2023373,13.6 C40.2023373,17.52 44.2023373,22.09 43.2023373,34.68 C43.2023373,35.14 42.9723373,42.36 43.0023373,42.82 C43.4423373,49.29 46.0023373,50.46 45.6523373,57.22 C44.3223373,57.32 44.9123373,57.55 43.7423373,57.89 C47.6923373,57.73 50.5723373,57.88 56.7523373,57.6 L56.7523373,57.6 Z" id="Path" fill="url(#linearGradient-59)"></path>
            <path d="M56.7223373,57.6 C57.2423373,50.84 51.8023373,48.49 51.0723373,42.02 C51.0723373,41.55 51.0723373,35.62 51.0723373,35.17 C51.0723373,25.03 44.0723373,15.92 35.2123373,13.6 C40.3223373,17.4 44.2923373,22.04 43.3623373,34.75 C43.3623373,35.2 43.1723373,42.25 43.2023373,42.75 C43.6623373,49.22 46.2623373,50.51 45.9323373,57.22 C44.6023373,57.33 45.3323373,57.56 44.1623373,57.89 C48.0823373,57.77 50.5423373,57.88 56.7223373,57.6 L56.7223373,57.6 Z" id="Path" fill="url(#linearGradient-60)"></path>
            <path d="M56.6823373,57.6 C57.2123373,50.84 51.7723373,48.49 51.0423373,42.02 C50.9823373,41.55 51.0423373,35.63 51.0423373,35.18 C51.0423373,25.04 44.0423373,15.99 35.2323373,13.6 C40.4123373,17.27 44.3923373,22 43.5523373,34.82 C43.5523373,35.27 43.3823373,42.15 43.4123373,42.62 C43.8423373,49.09 46.4823373,50.56 46.1723373,57.31 C44.8423373,57.42 45.7123373,57.65 44.5423373,57.98 C48.4723373,57.82 50.5023373,57.88 56.6823373,57.6 Z" id="Path" fill="url(#linearGradient-61)"></path>
            <path d="M56.6523373,57.6 C57.1723373,50.84 51.7323373,48.49 51.0023373,42.02 C51.0023373,41.55 51.0023373,35.64 51.0023373,35.19 C51.0023373,25.05 44.0923373,16.07 35.2423373,13.6 C40.4923373,17.14 44.4823373,21.95 43.7223373,34.89 C43.7223373,35.34 43.5823373,42.05 43.6123373,42.52 C44.0423373,48.99 46.7523373,50.61 46.4423373,57.36 C45.1023373,57.46 46.1223373,57.7 44.9423373,58.03 C48.8723373,57.87 50.4623373,57.88 56.6523373,57.6 L56.6523373,57.6 Z" id="Path" fill="url(#linearGradient-62)"></path>
            <path d="M56.6123373,57.6 C57.1323373,50.84 51.7023373,48.49 50.9723373,42.02 C50.9123373,41.55 50.9723373,35.65 50.9723373,35.2 C50.9723373,25.06 44.1123373,16.15 35.2723373,13.6 C40.5923373,17.01 44.5923373,21.9 43.9123373,34.96 C43.9123373,35.41 43.8023373,41.96 43.8323373,42.42 C44.2723373,48.89 47.0323373,50.65 46.7223373,57.42 C45.3923373,57.52 46.5423373,57.75 45.3723373,58.09 C49.2623373,57.92 50.4323373,57.88 56.6123373,57.6 L56.6123373,57.6 Z" id="Path" fill="url(#linearGradient-63)"></path>
            <path d="M56.5723373,57.6 C57.1023373,50.84 51.6623373,48.49 50.9323373,42.02 C50.9323373,41.55 50.9323373,35.66 50.9323373,35.21 C50.9323373,25.07 44.1123373,16.21 35.2823373,13.6 C40.6723373,16.88 44.6823373,21.85 44.0823373,35.03 C44.0823373,35.48 44.0123373,41.85 44.0823373,42.32 C44.5123373,48.79 47.3323373,50.7 47.0223373,57.45 C45.6923373,57.56 47.0223373,57.79 45.8123373,58.12 C49.6523373,57.96 50.3923373,57.88 56.5723373,57.6 L56.5723373,57.6 Z" id="Path" fill="url(#linearGradient-64)"></path>
            <path d="M56.5423373,57.6 C57.0623373,50.84 51.6323373,48.49 50.8923373,42.02 C50.8923373,41.55 50.8923373,35.67 50.8923373,35.21 C50.8967017,25.3868675 44.5929735,16.6713482 35.2623373,13.6 C40.7223373,16.75 44.7423373,21.81 44.2623373,35.09 L44.2623373,42.22 C44.6923373,48.69 47.5723373,50.75 47.2623373,57.5 C45.9323373,57.61 47.3723373,57.84 46.1923373,58.17 C50.0423373,58.01 50.3623373,57.88 56.5423373,57.6 Z" id="Path" fill="url(#linearGradient-65)"></path>
            <path d="M56.5023373,57.6 C57.0323373,50.84 51.5923373,48.49 50.8623373,42.02 C50.8623373,41.55 50.7923373,35.67 50.7923373,35.22 C50.7997734,25.4247584 44.5472744,16.7203778 35.2623373,13.6 C40.7923373,16.6 44.8223373,21.76 44.3823373,35.16 L44.3823373,42.16 C44.8123373,48.63 47.7523373,50.84 47.4423373,57.59 C46.1123373,57.69 47.6923373,57.93 46.5223373,58.26 C50.4423373,58.06 50.3223373,57.88 56.5023373,57.6 L56.5023373,57.6 Z" id="Path" fill="url(#linearGradient-66)"></path>
            <path d="M56.4723373,57.6 C56.9923373,50.84 51.5523373,48.49 50.8223373,42.02 C50.8223373,41.55 50.7423373,35.68 50.7423373,35.23 C50.7459103,25.4492233 44.5213831,16.7517735 35.2623373,13.6 C40.8623373,16.5 44.9023373,21.71 44.5523373,35.23 L44.5523373,42.02 C44.9923373,48.49 47.9823373,50.84 47.6723373,57.6 C46.3423373,57.7 48.0623373,57.93 46.8923373,58.27 C50.8323373,58.11 50.2623373,57.88 56.4723373,57.6 L56.4723373,57.6 Z" id="Path" fill="url(#linearGradient-67)"></path>
            <path d="M56.4323373,57.6 C56.9523373,50.84 51.5123373,48.49 50.7823373,42.02 C50.7823373,41.55 50.7023373,35.68 50.7023373,35.23 C50.7271007,25.4548413 44.5152115,16.7525639 35.2623373,13.6 C40.8623373,16.5 45.0623373,21.71 44.7023373,35.23 L44.7023373,42.02 C45.1323373,48.49 48.1323373,50.84 47.8223373,57.6 C46.4923373,57.7 48.2123373,57.93 47.0423373,58.27 C51.0123373,58.11 50.2623373,57.88 56.4323373,57.6 Z" id="Path" fill="url(#linearGradient-68)"></path>
            <path d="M56.3923373,57.6 C56.9123373,50.84 51.4723373,48.49 50.7423373,42.02 C50.7423373,41.55 50.6623373,35.68 50.6623373,35.23 C50.7052532,25.4614524 44.5071455,16.7559285 35.2623373,13.6 C40.8623373,16.5 45.2623373,21.71 44.8623373,35.23 L44.8623373,42.02 C45.2923373,48.49 48.2923373,50.84 47.9823373,57.6 C46.6523373,57.7 48.3723373,57.93 47.2023373,58.27 C51.1923373,58.11 50.2023373,57.88 56.3923373,57.6 L56.3923373,57.6 Z" id="Path" fill="url(#linearGradient-69)"></path>
            <path d="M56.3523373,57.6 C56.8723373,50.84 51.4323373,48.49 50.7023373,42.02 C50.7023373,41.55 50.6223373,35.68 50.6223373,35.23 C50.6865389,25.4670941 44.5010529,16.7566734 35.2623373,13.6 C40.8623373,16.5 45.3723373,21.71 45.0223373,35.23 L45.0223373,42.02 C45.4523373,48.49 48.4523373,50.84 48.1423373,57.6 C46.8123373,57.7 48.5323373,57.93 47.3523373,58.27 C51.3723373,58.11 50.1623373,57.88 56.3523373,57.6 L56.3523373,57.6 Z" id="Path" fill="url(#linearGradient-70)"></path>
            <path d="M56.3123373,57.6 C56.8323373,50.84 51.3923373,48.49 50.6623373,42.02 C50.6123373,41.55 50.5823373,35.68 50.5823373,35.23 C50.6765794,25.488544 44.5312984,16.778031 35.3223373,13.6 C40.9223373,16.5 45.5923373,21.71 45.2623373,35.22 L45.2623373,42.01 C45.6923373,48.48 48.6923373,50.83 48.3823373,57.59 C47.0523373,57.69 48.7723373,57.92 47.5923373,58.26 C51.5423373,58.11 50.1223373,57.88 56.3123373,57.6 L56.3123373,57.6 Z" id="Path" fill="url(#linearGradient-71)"></path>
            <path d="M56.2623373,57.6 C56.7823373,50.84 51.3423373,48.49 50.6123373,42.02 C50.6123373,41.55 50.5323373,35.68 50.5323373,35.23 C50.6539805,25.4985112 44.5293549,16.7830078 35.3323373,13.6 C40.9323373,16.5 45.7723373,21.71 45.4223373,35.23 L45.4223373,42.02 C45.8523373,48.49 48.8523373,50.84 48.5423373,57.6 C47.2123373,57.7 48.9223373,57.93 47.7523373,58.27 C51.7223373,58.11 50.0823373,57.88 56.2623373,57.6 Z" id="Path" fill="url(#linearGradient-72)"></path>
            <path d="M56.2623373,57.6 C56.7923373,50.84 51.3523373,48.49 50.6223373,42.02 C50.6223373,41.55 50.5423373,35.68 50.5423373,35.23 C50.5423373,25.09 44.1923373,16.46 35.3923373,13.6 C40.9923373,16.5 45.9923373,21.71 45.6423373,35.23 L45.6423373,42.02 C46.0723373,48.49 49.0723373,50.84 48.7623373,57.6 C47.4223373,57.7 49.1423373,57.93 47.9723373,58.27 C51.9023373,58.11 50.0423373,57.88 56.2623373,57.6 Z" id="Path" fill="url(#linearGradient-73)"></path>
            <path d="M56.1823373,57.6 C56.7123373,50.84 51.2723373,48.49 50.5423373,42.02 C50.5423373,41.55 50.4623373,35.68 50.4623373,35.23 C50.4623373,25.09 44.1623373,16.46 35.3723373,13.6 C40.9723373,16.5 46.1323373,21.71 45.7823373,35.23 L45.7823373,42.02 C46.2623373,48.49 49.2623373,50.84 48.9423373,57.6 C47.6123373,57.7 49.3323373,57.93 48.1623373,58.27 C52.0823373,58.11 50.0023373,57.88 56.1823373,57.6 L56.1823373,57.6 Z" id="Path" fill="url(#linearGradient-74)"></path>
            <path d="M56.1423373,57.6 C56.6723373,50.84 51.2323373,48.49 50.5023373,42.02 C50.5023373,41.55 50.4223373,35.68 50.4223373,35.23 C50.4223373,25.09 44.1823373,16.46 35.4223373,13.6 C41.0223373,16.5 46.3423373,21.71 45.9823373,35.23 L45.9823373,42.02 C46.4123373,48.49 49.4123373,50.84 49.1023373,57.6 C47.7723373,57.7 49.4923373,57.93 48.3223373,58.27 C52.2623373,58.11 49.9623373,57.88 56.1423373,57.6 Z" id="Path" fill="url(#linearGradient-75)"></path>
            <path d="M56.1023373,57.6 C56.6323373,50.84 51.1923373,48.49 50.4623373,42.02 C50.4623373,41.55 50.3823373,35.68 50.3823373,35.23 C50.3823373,25.09 44.2023373,16.46 35.3823373,13.6 C40.9823373,16.5 46.4523373,21.71 46.1023373,35.23 L46.1023373,42.02 C46.5323373,48.49 49.5323373,50.84 49.2223373,57.6 C47.8923373,57.7 49.6123373,57.93 48.4423373,58.27 C52.4423373,58.11 49.9223373,57.88 56.1023373,57.6 Z" id="Path" fill="url(#linearGradient-76)"></path>
            <path d="M56.0623373,57.6 C56.5923373,50.84 51.1523373,48.49 50.4223373,42.02 C50.4223373,41.55 50.3423373,35.68 50.3423373,35.23 C50.3423373,25.09 44.2223373,16.46 35.4223373,13.6 C41.0223373,16.5 46.6623373,21.71 46.3123373,35.23 L46.3123373,42.02 C46.7423373,48.49 49.7423373,50.84 49.4323373,57.6 C48.1023373,57.7 49.8223373,57.93 48.6423373,58.27 C52.6223373,58.11 49.8823373,57.88 56.0623373,57.6 Z" id="Path" fill="url(#linearGradient-77)"></path>
            <path d="M56.0223373,57.6 C56.5523373,50.84 51.1123373,48.49 50.3823373,42.02 C50.3323373,41.55 50.2623373,35.68 50.2623373,35.22 C50.2623373,25.09 44.2623373,16.46 35.4423373,13.6 C41.0423373,16.5 46.8423373,21.71 46.4423373,35.23 L46.4423373,42.02 C46.8723373,48.49 49.8723373,50.84 49.5623373,57.6 C48.2323373,57.7 49.9523373,57.93 48.7723373,58.27 C52.7923373,58.11 49.8423373,57.88 56.0223373,57.6 Z" id="Path" fill="url(#linearGradient-78)"></path>
            <path d="M55.9823373,57.6 C56.5123373,50.84 51.0723373,48.49 50.3423373,42.02 C50.2623373,41.55 50.2623373,35.68 50.2623373,35.22 C50.2623373,25.08 44.2623373,16.45 35.4623373,13.59 C41.0623373,16.49 47.0223373,21.7 46.6723373,35.22 L46.6723373,42.01 C47.1023373,48.48 50.1023373,50.83 49.7923373,57.59 C48.4623373,57.69 50.1723373,57.92 49.0023373,58.26 C52.9723373,58.11 49.8023373,57.88 55.9823373,57.6 L55.9823373,57.6 Z" id="Path" fill="url(#linearGradient-79)"></path>
            <path d="M55.9423373,57.6 C56.4723373,50.84 51.0323373,48.49 50.3023373,42.02 C50.2623373,41.55 50.2623373,35.68 50.2623373,35.22 C50.2623373,25.09 44.2623373,16.46 35.4823373,13.6 C41.0823373,16.5 47.2023373,21.71 46.8523373,35.23 L46.8523373,42.02 C47.2823373,48.49 50.2823373,50.84 49.9723373,57.6 C48.6323373,57.7 50.3523373,57.93 49.1823373,58.27 C53.1523373,58.11 49.7623373,57.88 55.9423373,57.6 Z" id="Path" fill="url(#linearGradient-80)"></path>
            <path d="M55.9023373,57.6 C56.4323373,50.84 50.9923373,48.49 50.2623373,42.02 C50.2023373,41.55 50.1823373,35.68 50.1823373,35.23 C50.1823373,25.09 44.2923373,16.46 35.5023373,13.6 C41.0923373,16.5 47.3823373,21.71 47.0323373,35.23 L47.0323373,42.02 C47.4723373,48.49 50.4623373,50.84 50.1523373,57.6 C48.8223373,57.7 50.5423373,57.93 49.3723373,58.27 C53.3323373,58.11 49.7223373,57.88 55.9023373,57.6 L55.9023373,57.6 Z" id="Path" fill="url(#linearGradient-81)"></path>
            <path d="M55.8623373,57.6 C56.3923373,50.84 50.9523373,48.49 50.2223373,42.02 C50.1623373,41.55 50.1423373,35.68 50.1423373,35.23 C50.1423373,25.09 44.3123373,16.46 35.5123373,13.6 C41.1123373,16.5 47.5123373,21.71 47.2123373,35.23 L47.2123373,42.02 C47.6423373,48.49 50.6423373,50.84 50.3323373,57.6 C49.0023373,57.7 50.7223373,57.93 49.5523373,58.27 C53.5123373,58.11 49.6823373,57.88 55.8623373,57.6 L55.8623373,57.6 Z" id="Path" fill="url(#linearGradient-82)"></path>
            <path d="M55.8223373,57.6 C56.3423373,50.84 50.9123373,48.49 50.1823373,42.02 C50.1223373,41.55 50.1023373,35.68 50.1023373,35.23 C50.1023373,25.09 44.3323373,16.46 35.5323373,13.6 C41.1323373,16.5 47.7323373,21.71 47.3823373,35.23 L47.3823373,42.02 C47.8123373,48.49 50.8123373,50.84 50.5023373,57.6 C49.1723373,57.7 50.8923373,57.93 49.7223373,58.27 C53.6923373,58.11 49.6423373,57.88 55.8223373,57.6 Z" id="Path" fill="url(#linearGradient-83)"></path>
            <path d="M55.7823373,57.6 C56.3023373,50.84 50.8723373,48.49 50.1423373,42.02 C50.0823373,41.55 50.0523373,35.68 50.0523373,35.23 C50.0523373,25.09 44.3423373,16.46 35.5523373,13.6 C41.1523373,16.5 47.9123373,21.71 47.5523373,35.23 L47.5523373,42.02 C47.9823373,48.49 50.9823373,50.84 50.6723373,57.6 C49.3423373,57.7 51.0623373,57.93 49.8823373,58.27 C53.8723373,58.11 49.6023373,57.88 55.7823373,57.6 Z" id="Path" fill="url(#linearGradient-84)"></path>
            <path d="M55.7423373,57.6 C56.2623373,50.84 50.8323373,48.49 50.1023373,42.02 C50.0423373,41.55 50.0123373,35.68 50.0123373,35.23 C50.0123373,25.09 44.3623373,16.46 35.5723373,13.6 C41.1723373,16.5 48.0923373,21.71 47.7423373,35.23 L47.7423373,42.02 C48.2623373,48.49 51.2623373,50.84 50.9123373,57.6 C49.5823373,57.7 51.3023373,57.93 50.1223373,58.27 C54.0423373,58.11 49.5623373,57.88 55.7423373,57.6 Z" id="Path" fill="url(#linearGradient-85)"></path>
            <path d="M55.7023373,57.6 C56.2223373,50.84 50.7923373,48.49 50.0523373,42.02 C50.0023373,41.55 49.9723373,35.68 49.9723373,35.23 C49.9723373,25.09 44.3823373,16.46 35.5823373,13.6 C41.1823373,16.5 48.2623373,21.71 47.9223373,35.22 L47.9223373,42.01 C48.3523373,48.48 51.3523373,50.83 51.0423373,57.59 C49.7123373,57.69 51.4323373,57.92 50.2523373,58.26 C54.2623373,58.11 49.5223373,57.88 55.7023373,57.6 L55.7023373,57.6 Z" id="Path" fill="url(#linearGradient-86)"></path>
            <path d="M55.6623373,57.6 C56.1823373,50.84 50.7523373,48.49 50.0123373,42.02 C50.0123373,41.55 49.9323373,35.68 49.9323373,35.23 C49.9323373,25.09 44.4023373,16.46 35.6023373,13.6 C41.2023373,16.5 48.4523373,21.71 48.1023373,35.23 L48.1023373,42.02 C48.5323373,48.49 51.5323373,50.84 51.2223373,57.6 C49.8823373,57.7 51.6023373,57.93 50.4323373,58.27 C54.4023373,58.11 49.4823373,57.88 55.6623373,57.6 Z" id="Path" fill="url(#linearGradient-87)"></path>
            <path d="M55.6223373,57.6 C56.1423373,50.84 50.7123373,48.49 49.9723373,42.02 C49.9723373,41.55 49.8923373,35.68 49.8923373,35.23 C49.8923373,25.09 44.4123373,16.46 35.6223373,13.6 C41.2623373,16.5 48.6323373,21.71 48.2623373,35.22 L48.2623373,42.01 C48.7023373,48.48 51.6923373,50.83 51.3823373,57.59 C50.0523373,57.69 51.7723373,57.92 50.6023373,58.26 C54.5823373,58.11 49.4423373,57.88 55.6223373,57.6 L55.6223373,57.6 Z" id="Path" fill="url(#linearGradient-88)"></path>
            <ellipse id="Oval" fill="url(#linearGradient-89)" fill-rule="nonzero" cx="29.4723373" cy="57.58" rx="29.43" ry="7.39"></ellipse>
            <path d="M29.0523373,13.47 C25.8423373,13.47 23.2123373,13.47 20.5023373,14.94 C14.6523373,18.32 10.6723373,24.71 10.6723373,30.8 C10.6723373,34.39 9.04233731,41.67 11.3623373,43.29 C14.7423373,45.64 24.2823373,42.58 30.3623373,42.58 C40.6623373,42.58 41.3623373,39.9 41.3623373,31.09 C41.3623373,22.55 39.3523373,13.47 29.0523373,13.47 Z" id="Path" fill="url(#linearGradient-90)"></path>
            <path d="M29.0123373,13.55 C25.8623373,13.55 23.2723373,13.55 20.6123373,15.02 C14.8723373,18.31 10.9623373,24.56 10.9623373,30.5 C10.9623373,34.02 9.38233731,41.07 11.6723373,42.66 C14.9823373,44.94 24.3023373,41.99 30.2723373,41.99 C40.3723373,41.99 41.0923373,39.39 41.0923373,30.78 C41.0923373,22.43 39.1123373,13.55 29.0123373,13.55 L29.0123373,13.55 Z" id="Path" fill="url(#linearGradient-91)"></path>
            <path d="M28.9723373,13.64 C25.8823373,13.64 23.3323373,13.64 20.7223373,15.09 C15.0923373,18.3 11.2623373,24.4 11.2623373,30.22 C11.2623373,33.66 9.72233731,40.49 11.9823373,42.03 C15.2623373,44.22 24.3123373,41.4 30.1623373,41.4 C40.0723373,41.4 40.8223373,38.87 40.8223373,30.46 C40.8223373,22.32 38.8823373,13.64 28.9723373,13.64 L28.9723373,13.64 Z" id="Path" fill="url(#linearGradient-92)"></path>
            <path d="M28.9323373,13.72 C25.9323373,13.72 23.3923373,13.72 20.8323373,15.16 C15.3123373,18.3 11.5623373,24.22 11.5623373,29.92 C11.5623373,33.28 10.0623373,39.92 12.2823373,41.38 C15.4723373,43.55 24.2823373,40.8 30.0523373,40.8 C39.7623373,40.8 40.5523373,38.36 40.5523373,30.15 C40.5523373,22.22 38.6423373,13.72 28.9323373,13.72 Z" id="Path" fill="url(#linearGradient-93)"></path>
            <path d="M28.8923373,13.81 C25.8923373,13.81 23.4423373,13.87 20.9423373,15.23 C15.5323373,18.29 11.8523373,24.09 11.8523373,29.62 C11.8523373,32.91 10.4023373,39.28 12.5923373,40.75 C15.7123373,42.85 24.3523373,40.21 29.9423373,40.21 C39.4523373,40.22 40.2623373,37.85 40.2623373,29.84 C40.2623373,22.09 38.4123373,13.81 28.8923373,13.81 L28.8923373,13.81 Z" id="Path" fill="url(#linearGradient-94)"></path>
            <path d="M28.8523373,13.89 C25.9423373,13.89 23.5023373,13.97 21.0523373,15.3 C15.7523373,18.3 12.1523373,23.94 12.1523373,29.3 C12.1523373,32.52 10.7423373,38.65 12.9023373,40.08 C15.9623373,42.08 24.3623373,39.58 29.8323373,39.58 C39.1523373,39.58 40.0223373,37.3 40.0223373,29.5 C40.0223373,21.98 38.1723373,13.89 28.8523373,13.89 Z" id="Path" fill="url(#linearGradient-95)"></path>
            <path d="M28.8123373,13.97 C25.9623373,13.97 23.5623373,14.08 21.1623373,15.37 C15.9823373,18.28 12.4523373,23.79 12.4523373,29.03 C12.4523373,32.18 11.0823373,38.03 13.2023373,39.48 C16.2023373,41.48 24.3823373,39.02 29.7223373,39.02 C38.8423373,39.02 39.7223373,36.82 39.7223373,29.22 C39.7523373,21.86 37.9423373,13.97 28.8123373,13.97 L28.8123373,13.97 Z" id="Path" fill="url(#linearGradient-96)"></path>
            <path d="M28.7723373,14.06 C25.9823373,14.06 23.6223373,14.18 21.2723373,15.44 C16.2023373,18.27 12.7523373,23.63 12.7523373,28.74 C12.7523373,31.81 11.4223373,37.49 13.5123373,38.84 C16.4523373,40.76 24.3923373,38.43 29.6123373,38.43 C38.5423373,38.43 39.4823373,36.31 39.4823373,28.91 C39.4823373,21.75 37.7023373,14.06 28.7723373,14.06 L28.7723373,14.06 Z" id="Path" fill="url(#linearGradient-97)"></path>
            <path d="M28.7323373,14.14 C26.0023373,14.14 23.7323373,14.29 21.3823373,15.51 C16.3823373,18.27 13.0423373,23.51 13.0423373,28.45 C13.0423373,31.45 11.7623373,36.89 13.8223373,38.21 C16.6923373,40.06 24.4123373,37.83 29.5023373,37.83 C38.2323373,37.83 39.2123373,35.83 39.2123373,28.6 C39.2623373,21.64 37.4723373,14.14 28.7323373,14.14 L28.7323373,14.14 Z" id="Path" fill="url(#linearGradient-98)"></path>
            <path d="M28.6923373,14.22 C26.2156969,14.0530379 23.7374362,14.5211538 21.4923373,15.58 C16.6423373,18.26 13.3423373,23.33 13.3423373,28.15 C13.3423373,31.07 12.1023373,36.29 14.1323373,37.57 C16.9423373,39.36 24.4323373,37.24 29.3923373,37.24 C37.9323373,37.24 38.9423373,35.24 38.9423373,28.29 C38.9423373,21.52 37.2623373,14.22 28.6923373,14.22 L28.6923373,14.22 Z" id="Path" fill="url(#linearGradient-99)"></path>
            <path d="M28.6523373,14.31 C26.2437765,14.1660591 23.8374544,14.6266979 21.6523373,15.65 C16.9123373,18.25 13.6523373,23.17 13.6523373,27.86 C13.6523373,30.7 12.4523373,35.69 14.4423373,36.94 C17.1923373,38.66 24.4423373,36.65 29.2923373,36.65 C37.6323373,36.65 38.6823373,34.76 38.6823373,27.98 C38.6723373,21.41 37.0023373,14.31 28.6523373,14.31 Z" id="Path" fill="url(#linearGradient-100)"></path>
            <path d="M28.6123373,14.39 C26.2361836,14.2483413 23.8627515,14.7092687 21.7123373,15.73 C17.0823373,18.22 13.9323373,23.02 13.9323373,27.56 C13.9323373,30.33 12.7823373,35.09 14.7423373,36.3 C17.4223373,37.96 24.4623373,36.05 29.1723373,36.05 C37.3123373,36.05 38.4123373,34.25 38.4123373,27.67 C38.4123373,21.29 36.7623373,14.39 28.6123373,14.39 L28.6123373,14.39 Z" id="Path" fill="url(#linearGradient-101)"></path>
            <path d="M28.5723373,14.47 C26.2467363,14.3449868 23.9266872,14.8021224 21.8223373,15.8 C17.2623373,18.22 14.2623373,22.86 14.2623373,27.27 C14.2623373,29.96 13.1523373,34.49 15.0823373,35.66 C17.7023373,37.26 24.5023373,35.46 29.0823373,35.46 C37.0823373,35.46 38.1623373,33.74 38.1623373,27.36 C38.1423373,21.22 36.5223373,14.47 28.5723373,14.47 L28.5723373,14.47 Z" id="Path" fill="url(#linearGradient-102)"></path>
            <path d="M28.5323373,14.56 C26.258161,14.4483151 23.9914624,14.8982204 21.9323373,15.87 C17.5323373,18.23 14.5323373,22.71 14.5323373,26.98 C14.5323373,29.59 13.4723373,33.89 15.3523373,35.03 C17.9123373,36.56 24.4923373,34.86 28.9523373,34.86 C36.7023373,34.86 37.8723373,33.22 37.8723373,27.05 C37.8723373,21.07 36.2623373,14.56 28.5323373,14.56 L28.5323373,14.56 Z" id="Path" fill="url(#linearGradient-103)"></path>
            <path d="M28.4923373,14.64 C26.2716252,14.5397044 24.0602462,14.9861008 22.0523373,15.94 C17.7523373,18.23 14.8223373,22.56 14.8223373,26.68 C14.8223373,29.22 13.8223373,33.3 15.6623373,34.39 C18.1523373,35.87 24.5123373,34.27 28.8423373,34.27 C36.4023373,34.27 37.6023373,32.71 37.6023373,26.74 C37.6023373,20.95 36.0523373,14.64 28.4923373,14.64 L28.4923373,14.64 Z" id="Path" fill="url(#linearGradient-104)"></path>
            <path d="M28.4523373,14.72 C26.2823713,14.6370818 24.1244919,15.0796357 22.1623373,16.01 C17.9723373,18.22 15.1623373,22.4 15.1623373,26.39 C15.1623373,28.85 14.1623373,32.7 16.0123373,33.76 C18.4423373,35.17 24.5623373,33.68 28.7723373,33.68 C36.1323373,33.68 37.3723373,32.2 37.3723373,26.43 C37.3323373,20.84 35.8223373,14.72 28.4523373,14.72 L28.4523373,14.72 Z" id="Path" fill="url(#linearGradient-105)"></path>
            <path d="M28.4123373,14.81 C26.2901872,14.7344059 24.1809523,15.1699714 22.2623373,16.08 C18.1823373,18.21 15.4123373,22.25 15.4123373,26.08 C15.4123373,28.48 14.4823373,32.08 16.2723373,33.08 C18.6323373,34.43 24.5323373,33.08 28.6123373,33.08 C35.7823373,33.08 37.0523875,31.68 37.0523875,26.08 C37.0623373,20.73 35.5823373,14.81 28.4123373,14.81 L28.4123373,14.81 Z" id="Path" fill="url(#linearGradient-106)"></path>
            <path d="M28.3723373,14.89 C26.3009975,14.8313955 24.2451271,15.2631283 22.3723373,16.15 C18.3723373,18.21 15.7123373,22.09 15.7123373,25.8 C15.7123373,28.12 14.8223373,31.5 16.5723373,32.49 C18.8723373,33.77 24.5723373,32.49 28.5023373,32.49 C35.5023373,32.49 36.7923885,31.17 36.7923885,25.81 C36.8023373,20.61 35.3523373,14.89 28.3723373,14.89 L28.3723373,14.89 Z" id="Path" fill="url(#linearGradient-107)"></path>
            <path d="M28.3323373,14.97 C26.3147976,14.9252215 24.3147845,15.3533065 22.4923373,16.22 C18.6323373,18.22 16.0123373,21.94 16.0123373,25.5 C16.0123373,27.75 15.1623373,30.91 16.8923373,31.85 C19.1223373,33.08 24.5723373,31.85 28.4023373,31.85 C35.1823373,31.85 36.5323373,30.62 36.5323373,25.46 C36.5323373,20.5 35.1123373,14.97 28.3323373,14.97 L28.3323373,14.97 Z" id="Path" fill="url(#linearGradient-108)"></path>
            <path d="M28.2623373,15.06 C26.2966212,15.0300334 24.350166,15.4507961 22.5723373,16.29 C18.8223373,18.19 16.2823373,21.79 16.2823373,25.21 C16.2823373,27.38 15.4723373,30.31 17.1723373,31.21 C19.3423373,32.37 24.5623373,31.29 28.2623373,31.29 C34.8423373,31.29 36.2623373,30.13 36.2623373,25.18 C36.2623373,20.23 34.8823373,15.06 28.2623373,15.06 L28.2623373,15.06 Z" id="Path" fill="url(#linearGradient-109)"></path>
            <path d="M28.2623373,15.14 C26.3464237,15.1258449 24.4522495,15.5463926 22.7223373,16.37 C19.0923373,18.19 16.6223373,21.63 16.6223373,24.92 C16.6223373,27.01 15.8523373,29.71 17.5123373,30.58 C19.6223373,31.69 24.6123373,30.71 28.1923373,30.71 C34.5723373,30.71 36.0023373,29.63 36.0023373,24.87 C35.9923373,20.27 34.6423373,15.14 28.2623373,15.14 L28.2623373,15.14 Z" id="Path" fill="url(#linearGradient-110)"></path>
            <path d="M28.2623373,15.2199934 C26.397,15.2180819 24.5550332,15.635002 22.8723373,16.44 C19.3523373,18.18 16.9523373,21.44 16.9523373,24.62 C16.9523373,26.62 16.2423373,29.11 17.8623373,29.94 C19.9123373,30.99 24.6723373,30.11 28.1223373,30.11 C34.3123373,30.11 35.7723373,29.11 35.7723373,24.56 C35.7223373,20.16 34.4123373,15.2199934 28.2623373,15.2199934 L28.2623373,15.2199934 Z" id="Path" fill="#FDD77F"></path>
            <path d="M28.1723373,15.2999902 C26.3455881,15.2976918 24.5414858,15.7042981 22.8923373,16.49 C19.4423373,18.19 17.0923373,21.43 17.0923373,24.49 C17.0923373,26.49 16.3923373,28.89 17.9823373,29.71 C19.9823373,30.71 24.6523373,29.87 27.9823373,29.87 C34.0523373,29.87 35.4823373,28.87 35.4823373,24.43 C35.4823373,19.99 34.2623373,15.2999902 28.1723373,15.2999902 L28.1723373,15.2999902 Z" id="Path" fill="#FDD780"></path>
            <path d="M28.1323373,15.3699943 C26.3399607,15.368251 24.5699571,15.7680394 22.9523373,16.54 C19.5723373,18.22 17.2623373,21.38 17.2623373,24.4 C17.2623373,26.33 16.5723373,28.71 18.1323373,29.51 C20.1323373,30.51 24.6623373,29.67 27.9723373,29.67 C33.9723373,29.67 35.3223373,28.67 35.3223373,24.34 C35.3223373,20.01 34.0823373,15.3699943 28.1323373,15.3699943 L28.1323373,15.3699943 Z" id="Path" fill="#FDD881"></path>
            <path d="M28.0923373,15.4499912 C26.3385469,15.4478546 24.6064059,15.8373301 23.0223373,16.59 C19.7123373,18.22 17.4623373,21.33 17.4623373,24.28 C17.4623373,26.18 16.7923373,28.51 18.3223373,29.28 C20.2423373,30.28 24.7223373,29.44 27.9623373,29.44 C33.7823373,29.44 35.1523373,28.5 35.1523373,24.22 C35.1523373,19.94 33.9123373,15.4499912 28.0923373,15.4499912 L28.0923373,15.4499912 Z" id="Path" fill="#FED982"></path>
            <path d="M28.0523373,15.5199507 C26.3229108,15.5149521 24.614351,15.8976694 23.0523373,16.64 C19.8523373,18.22 17.6523373,21.28 17.6523373,24.22 C17.6523373,26.08 16.9923373,28.35 18.4923373,29.12 C20.3723373,30.12 24.7523373,29.27 27.9223373,29.27 C33.6223373,29.27 34.9223373,28.36 34.9223373,24.17 C34.9223373,19.98 33.7523373,15.5199507 28.0523373,15.5199507 L28.0523373,15.5199507 Z" id="Path" fill="#FED983"></path>
            <path d="M28.0123373,15.5999588 C26.3344324,15.5954486 24.6769455,15.967956 23.1623373,16.69 C19.9923373,18.22 17.8423373,21.22 17.8423373,24.06 C17.8423373,25.88 17.1923373,28.06 18.6523373,28.85 C20.4923373,29.79 24.7823373,29 27.8823373,29 C33.4623373,29 34.7723373,28.1 34.7723373,24 C34.7723373,19.9 33.5923373,15.5999588 28.0123373,15.5999588 L28.0123373,15.5999588 Z" id="Path" fill="#FEDA84"></path>
            <path d="M27.9723373,15.68 C26.3432139,15.6801934 24.7344725,16.0422456 23.2623373,16.74 C20.1623373,18.28 18.0523373,21.18 18.0523373,23.95 C18.0523373,25.72 17.4223373,27.95 18.8523373,28.63 C20.6523373,29.55 24.8523373,28.78 27.8523373,28.78 C33.3023373,28.78 34.5823373,27.9 34.5823373,23.9 C34.5823373,19.9 33.4223373,15.68 27.9723373,15.68 L27.9723373,15.68 Z" id="Path" fill="#FEDA85"></path>
            <path d="M27.9323373,15.75 C26.3341563,15.7379388 24.7530805,16.0794239 23.3023373,16.75 C20.3023373,18.25 18.2123373,21.09 18.2123373,23.75 C18.2123373,25.49 17.5923373,27.62 18.9923373,28.33 C20.7523373,29.23 24.8523373,28.48 27.8123373,28.48 C33.1423373,28.48 34.3923373,27.62 34.3923373,23.7 C34.3923373,19.78 33.2623373,15.75 27.9323373,15.75 L27.9323373,15.75 Z" id="Path" fill="#FEDB86"></path>
            <path d="M27.8923373,15.83 C26.3263415,15.8183524 24.7778971,16.1601724 23.3623373,16.83 C20.4123373,18.29 18.3623373,21.06 18.3623373,23.7 C18.3623373,25.4 17.7523373,27.47 19.1223373,28.17 C20.8423373,29.05 24.8423373,28.31 27.7323373,28.31 C32.9323373,28.31 34.1623373,27.48 34.1623373,23.65 C34.1623373,19.82 33.1023373,15.83 27.8923373,15.83 L27.8923373,15.83 Z" id="Path" fill="#FEDB87"></path>
            <path d="M27.8623373,15.8999869 C26.3294356,15.8975513 24.8155414,16.2392882 23.4323373,16.9 C20.5523373,18.32 18.5823373,21.03 18.5823373,23.61 C18.5823373,25.26 17.9923373,27.29 19.3323373,27.97 C21.0023373,28.83 24.9123373,28.11 27.7423373,28.11 C32.8123373,28.11 34.0123373,27.29 34.0123373,23.56 C34.0123373,19.83 32.9323373,15.8999869 27.8623373,15.8999869 L27.8623373,15.8999869 Z" id="Path" fill="#FEDC88"></path>
            <path d="M27.8223373,15.98 C26.3256472,15.9858456 24.8493573,16.3275793 23.5023373,16.98 C20.6823373,18.37 18.7723373,20.98 18.7723373,23.53 C18.7723373,25.14 18.2023373,27.12 19.5023373,27.78 C21.1323373,28.62 24.9423373,27.92 27.7023373,27.92 C32.7023373,27.92 33.8223373,27.12 33.8223373,23.48 C33.8223373,19.84 32.7723373,15.98 27.8223373,15.98 Z" id="Path" fill="#FEDC89"></path>
            <path d="M27.7823373,16.05 C26.3216084,16.0620769 24.8824705,16.4039149 23.5723373,17.05 C20.8223373,18.41 18.9623373,20.98 18.9623373,23.43 C18.9623373,25.01 18.4023373,26.94 19.6623373,27.58 C21.2623373,28.4 24.9723373,27.72 27.6623373,27.72 C32.4923373,27.72 33.6623373,26.94 33.6623373,23.39 C33.6623373,19.84 32.6123373,16.05 27.7823373,16.05 L27.7823373,16.05 Z" id="Path" fill="#FEDD8A"></path>
            <path d="M27.7423373,16.1299848 C26.3242061,16.1274635 24.923422,16.4417857 23.6423373,17.05 C20.9623373,18.37 19.1423373,20.88 19.1423373,23.27 C19.1423373,24.8 18.6023373,26.68 19.8323373,27.32 C21.3923373,28.11 25.0123373,27.44 27.6323373,27.44 C32.3323373,27.44 33.4423373,26.69 33.4423373,23.23 C33.4423373,19.77 32.4423373,16.1299848 27.7423373,16.1299848 L27.7423373,16.1299848 Z" id="Path" fill="#FEDE8B"></path>
            <path d="M27.7023373,16.2199959 C26.3186539,16.218698 24.9521159,16.5261691 23.7023373,17.12 C21.0923373,18.41 19.3223373,20.85 19.3223373,23.18 C19.3223373,24.67 18.7923373,26.5 19.9923373,27.12 C21.5023373,27.89 24.9923373,27.24 27.5823373,27.24 C32.1623373,27.24 33.2423373,26.5 33.2423373,23.13 C33.2423373,19.76 32.2623373,16.2199959 27.7023373,16.2199959 L27.7023373,16.2199959 Z" id="Path" fill="#FEDE8C"></path>
            <path d="M27.6623373,16.2799816 C26.3171264,16.2772864 24.9882293,16.5744947 23.7723373,17.15 C21.2423373,18.41 19.5223373,20.78 19.5223373,23.05 C19.5223373,24.5 19.0023373,26.28 20.1723373,26.88 C21.6423373,27.63 25.0723373,27 27.5523373,27 C32.0123373,27 33.0623373,26.28 33.0623373,23 C33.0623373,19.72 32.1223373,16.2799816 27.6623373,16.2799816 L27.6623373,16.2799816 Z" id="Path" fill="#FEDF8D"></path>
            <path d="M27.6223373,16.3499989 C26.3148744,16.3493345 25.0236546,16.6396881 23.8423373,17.2 C21.3823373,18.42 19.7023373,20.73 19.7023373,22.93 C19.7023373,24.34 19.2023373,26.08 20.3423373,26.66 C21.7723373,27.39 25.1023373,26.78 27.5223373,26.78 C31.8523373,26.78 32.8723373,26.08 32.8723373,22.89 C32.8723373,19.7 31.9523373,16.3499989 27.6223373,16.3499989 L27.6223373,16.3499989 Z" id="Path" fill="#FEDF8E"></path>
            <path d="M27.5823373,16.43 C26.3135644,16.43 25.0604149,16.709905 23.9123373,17.25 C21.5223373,18.44 19.9123373,20.68 19.9123373,22.82 C19.9123373,24.19 19.4223373,25.82 20.5323373,26.44 C21.9223373,27.15 25.1623373,26.55 27.5323373,26.55 C31.7423373,26.55 32.7423373,25.88 32.7423373,22.78 C32.7423373,19.68 31.7923373,16.43 27.5823373,16.43 L27.5823373,16.43 Z" id="Path" fill="#FEE08F"></path>
            <path d="M27.5423373,16.4999886 C26.3108721,16.4979559 25.0945321,16.7712908 23.9823373,17.3 C21.6623373,18.45 20.0823373,20.63 20.0823373,22.71 C20.0823373,24.04 19.6023373,25.71 20.6823373,26.22 C22.0223373,26.91 25.1723373,26.33 27.4423373,26.33 C31.5323373,26.33 32.5023373,25.67 32.5023373,22.67 C32.5023373,19.67 31.6323373,16.4999886 27.5423373,16.4999886 L27.5423373,16.4999886 Z" id="Path" fill="#FEE090"></path>
            <path d="M27.5023373,16.5799795 C26.3083175,16.5772859 25.1290602,16.8439006 24.0523373,17.36 C21.7923373,18.47 20.2623373,20.58 20.2623373,22.59 C20.2623373,23.89 19.8023373,25.47 20.8423373,26 C22.1523373,26.67 25.2023373,26.11 27.4123373,26.11 C31.4123373,26.11 32.3123373,25.47 32.3123373,22.56 C32.3123373,19.65 31.4623373,16.5799795 27.5023373,16.5799795 L27.5023373,16.5799795 Z" id="Path" fill="#FEE192"></path>
            <path d="M27.4623373,16.65 C26.3062922,16.6513825 25.1651614,16.911041 24.1223373,17.41 C22.0619894,18.299324 20.6536124,20.2449566 20.4523373,22.48 C20.4523373,23.73 20.0023373,25.27 21.0123373,25.78 C22.2823373,26.43 25.2323373,25.89 27.3723373,25.89 C31.2123373,25.89 32.1223373,25.27 32.1223373,22.45 C32.1223373,19.63 31.2623373,16.65 27.4623373,16.65 L27.4623373,16.65 Z" id="Path" fill="#FEE293"></path>
            <path d="M27.4223373,16.7299754 C26.3012414,16.7271203 25.1938746,16.9766196 24.1823373,17.46 C22.1915581,18.32408 20.8331572,20.2081897 20.6423373,22.37 C20.6423373,23.58 20.2023373,25.06 21.1823373,25.56 C22.4123373,26.19 25.2723373,25.66 27.3323373,25.66 C31.0523373,25.66 31.9323373,25.07 31.9323373,22.33 C31.9323373,19.59 31.1423373,16.7299754 27.4223373,16.7299754 L27.4223373,16.7299754 Z" id="Path" fill="#FEE294"></path>
            <path d="M27.3823373,16.8099885 C26.2999758,16.8080809 25.2307682,17.0472008 24.2523373,17.51 C22.3379182,18.3398822 21.0246194,20.1432749 20.8223373,22.22 C20.8223373,23.39 20.4123373,24.82 21.3523373,25.3 C22.5323373,25.91 25.3523373,25.4 27.3523373,25.4 C30.9423373,25.4 31.7923373,24.82 31.7923373,22.18 C31.7923373,19.54 30.9723373,16.8099885 27.3823373,16.8099885 L27.3823373,16.8099885 Z" id="Path" fill="#FEE395"></path>
            <ellipse id="Oval" fill="url(#linearGradient-111)" fill-rule="nonzero" cx="29.4723373" cy="57.58" rx="23.83" ry="5.98"></ellipse>
            <path d="M28.552337,51.61 C30.1575954,53.7312976 30.2086541,56.6466356 28.6786618,58.8228434 C27.1486695,60.9990513 24.3880837,61.9376505 21.848691,61.1450335 C19.3092983,60.3524166 17.5727677,58.010139 17.552337,55.35 C17.5520149,54.2725029 17.8347872,53.2138308 18.3723373,52.28 C21.7489948,51.8509611 25.1485756,51.6272165 28.552337,51.61 L28.552337,51.61 Z" id="Path" fill="url(#linearGradient-112)"></path>
            <path d="M26.1623373,60.96 C24.2699453,61.7867112 22.0882487,61.6033074 20.3604347,60.4722647 C18.6326208,59.341222 17.5917297,57.4150904 17.592337,55.35 C17.592337,55.13 17.592337,54.92 17.592337,54.7 C18.3776356,54.3726013 19.2215918,54.2092549 20.0723373,54.22 C21.6971963,54.2199978 23.2553597,54.8661542 24.4033702,56.0160406 C25.5513807,57.1659269 26.1949923,58.7251432 26.1923455,60.35 C26.1923455,60.53 26.1823373,60.75 26.1623373,60.96 L26.1623373,60.96 Z" id="Path" fill="url(#linearGradient-113)"></path>
        </g>
    </g>
</svg>